<svg width="142" height="216" xmlns="http://www.w3.org/2000/svg"><g fill="none" fill-rule="evenodd"><path d="M6.057 1.08h29.69c2.738 0 4.978 2.256 4.978 5.013v69.823c0 2.757-2.24 5.013-4.978 5.013H6.057c-2.738 0-4.978-2.256-4.978-5.013V6.093c0-2.757 2.24-5.013 4.978-5.013" fill="#FFF"/><path d="M6.057.58h29.69c3.015 0 5.478 2.48 5.478 5.513v69.823c0 3.033-2.463 5.513-5.478 5.513H6.057c-3.015 0-5.478-2.48-5.478-5.513V6.093C.58 3.06 3.042.58 6.057.58z" stroke="#000"/><path d="M6.057 3.461h29.69c1.437 0 2.613 1.185 2.613 2.632v69.823c0 1.447-1.176 2.632-2.613 2.632H6.057c-1.437 0-2.613-1.185-2.613-2.632V6.093c0-1.447 1.176-2.632 2.613-2.632m0-1.253h29.69c2.122 0 3.858 1.748 3.858 3.885v69.823c0 2.137-1.736 3.885-3.858 3.885H6.057c-2.121 0-3.858-1.748-3.858-3.885V6.093c0-2.137 1.737-3.885 3.858-3.885" fill="#000"/><path d="M38.361 19.299L3.443 39.41v-8.34L38.36 10.96v8.339zm0 15.798L3.443 55.208v-8.34l34.918-20.11v8.339zm0 15.841L3.443 71.05v-8.34L38.36 42.598v8.34z" fill="red"/><path d="M55.057 1.08h29.69c2.738 0 4.978 2.256 4.978 5.013v69.823c0 2.757-2.24 5.013-4.978 5.013h-29.69c-2.738 0-4.978-2.256-4.978-5.013V6.093c0-2.757 2.24-5.013 4.978-5.013" fill="#FFF"/><path d="M55.057.58h29.69c3.015 0 5.478 2.48 5.478 5.513v69.823c0 3.033-2.463 5.513-5.478 5.513h-29.69c-3.015 0-5.478-2.48-5.478-5.513V6.093C49.58 3.06 52.042.58 55.057.58z" stroke="#000"/><path d="M55.057 3.461h29.69c1.437 0 2.613 1.185 2.613 2.632v69.823c0 1.447-1.176 2.632-2.613 2.632h-29.69c-1.437 0-2.613-1.185-2.613-2.632V6.093c0-1.447 1.176-2.632 2.613-2.632m0-1.253h29.69c2.122 0 3.858 1.748 3.858 3.885v69.823c0 2.137-1.736 3.885-3.858 3.885h-29.69c-2.121 0-3.858-1.748-3.858-3.885V6.093c0-2.137 1.737-3.885 3.858-3.885" fill="#000"/><path d="M87.36 43.018L52.441 63.129v-8.34l34.92-20.11v8.339zm0-15.799L52.441 47.331v-8.34l34.92-20.11v8.338z" fill="red"/><path d="M105.057 1.08h29.69c2.738 0 4.978 2.256 4.978 5.013v69.823c0 2.757-2.24 5.013-4.978 5.013h-29.69c-2.738 0-4.978-2.256-4.978-5.013V6.093c0-2.757 2.24-5.013 4.978-5.013" fill="#FFF"/><path d="M105.057.58h29.69c3.015 0 5.478 2.48 5.478 5.513v69.823c0 3.033-2.463 5.513-5.478 5.513h-29.69c-3.015 0-5.478-2.48-5.478-5.513V6.093c0-3.033 2.463-5.513 5.478-5.513z" stroke="#000"/><path d="M105.057 3.461h29.69c1.437 0 2.613 1.185 2.613 2.632v69.823c0 1.447-1.176 2.632-2.613 2.632h-29.69c-1.437 0-2.613-1.185-2.613-2.632V6.093c0-1.447 1.176-2.632 2.613-2.632m0-1.253h29.69c2.122 0 3.858 1.748 3.858 3.885v69.823c0 2.137-1.736 3.885-3.858 3.885h-29.69c-2.121 0-3.858-1.748-3.858-3.885V6.093c0-2.137 1.737-3.885 3.858-3.885" fill="#000"/><path fill="red" d="M137.36 35.097l-34.919 20.111v-8.339l34.919-20.112z"/><g><path d="M35.991 118.08H6.093a5.028 5.028 0 0 0-5.013 5.013v69.823a5.028 5.028 0 0 0 5.013 5.013H35.99a5.028 5.028 0 0 0 5.014-5.013v-69.823a5.028 5.028 0 0 0-5.014-5.013" fill="#FFF"/><path d="M35.991 117.58c3.034 0 5.514 2.48 5.514 5.513v69.823c0 3.033-2.48 5.513-5.514 5.513H6.093c-3.033 0-5.513-2.48-5.513-5.513v-69.823c0-3.033 2.48-5.513 5.513-5.513H35.99z" stroke="#000"/><path d="M35.991 120.461H6.093a2.64 2.64 0 0 0-2.632 2.632v69.823a2.64 2.64 0 0 0 2.632 2.632H35.99a2.64 2.64 0 0 0 2.632-2.632v-69.823a2.64 2.64 0 0 0-2.632-2.632m0-1.253H6.093a3.897 3.897 0 0 0-3.885 3.885v69.823a3.897 3.897 0 0 0 3.885 3.885H35.99a3.896 3.896 0 0 0 3.885-3.885v-69.823a3.896 3.896 0 0 0-3.885-3.885" fill="#000"/><path d="M3.46 136.299l35.164 20.111v-8.34L3.46 127.96v8.339zm0 15.798l35.164 20.111v-8.34L3.46 143.759v8.339zm0 15.841l35.164 20.112v-8.34L3.46 159.598v8.34z" fill="red"/></g><g><path d="M84.991 118.08H55.093a5.028 5.028 0 0 0-5.013 5.013v69.823a5.028 5.028 0 0 0 5.013 5.013H84.99a5.028 5.028 0 0 0 5.014-5.013v-69.823a5.028 5.028 0 0 0-5.014-5.013" fill="#FFF"/><path d="M84.991 117.58c3.034 0 5.514 2.48 5.514 5.513v69.823c0 3.033-2.48 5.513-5.514 5.513H55.093c-3.033 0-5.513-2.48-5.513-5.513v-69.823c0-3.033 2.48-5.513 5.513-5.513H84.99z" stroke="#000"/><path d="M84.991 120.461H55.093a2.64 2.64 0 0 0-2.632 2.632v69.823a2.64 2.64 0 0 0 2.632 2.632H84.99a2.64 2.64 0 0 0 2.632-2.632v-69.823a2.64 2.64 0 0 0-2.632-2.632m0-1.253H55.093a3.897 3.897 0 0 0-3.885 3.885v69.823a3.897 3.897 0 0 0 3.885 3.885H84.99a3.896 3.896 0 0 0 3.885-3.885v-69.823a3.896 3.896 0 0 0-3.885-3.885" fill="#000"/><path d="M52.461 160.018l35.165 20.111v-8.34L52.46 151.68v8.339zm0-15.799l35.165 20.112v-8.34l-35.165-20.11v8.338z" fill="red"/></g><g><path d="M134.991 118.08h-29.898a5.028 5.028 0 0 0-5.013 5.013v69.823c0 2.757 2.256 5.013 5.013 5.013h29.898c2.758 0 5.014-2.256 5.014-5.013v-69.823a5.028 5.028 0 0 0-5.014-5.013" fill="#FFF"/><path d="M134.991 117.58c3.034 0 5.514 2.48 5.514 5.513v69.823c0 3.033-2.48 5.513-5.514 5.513h-29.898c-3.033 0-5.513-2.48-5.513-5.513v-69.823c0-3.033 2.48-5.513 5.513-5.513h29.898z" stroke="#000"/><path d="M134.991 120.461h-29.898a2.64 2.64 0 0 0-2.632 2.632v69.823a2.64 2.64 0 0 0 2.632 2.632h29.898a2.64 2.64 0 0 0 2.632-2.632v-69.823a2.64 2.64 0 0 0-2.632-2.632m0-1.253h-29.898a3.897 3.897 0 0 0-3.885 3.885v69.823a3.897 3.897 0 0 0 3.885 3.885h29.898a3.896 3.896 0 0 0 3.885-3.885v-69.823a3.896 3.896 0 0 0-3.885-3.885" fill="#000"/><path fill="red" d="M102.461 152.097l35.165 20.111v-8.339l-35.165-20.112z"/></g><path d="M10.352 97H5.629v-.89h1.816v-5.848H5.63v-.797c.246 0 .51-.02.79-.062.282-.04.495-.1.64-.178.18-.098.32-.222.424-.372.104-.15.163-.353.18-.607h.907v7.863h1.782V97zm4.16 0h-1.4v-1.67h1.4V97zm8.531-2.455h-1.295V97h-1.125v-2.455h-4.178v-1.348l4.225-4.922h1.078v5.332h1.295v.938zm-2.42-.938V89.67l-3.38 3.937h3.38zM26.506 97h-1.4v-1.67h1.4V97zm7.834 0h-4.723v-.89h1.817v-5.848h-1.817v-.797c.246 0 .51-.02.791-.062.281-.04.494-.1.639-.178.18-.098.321-.222.425-.372.103-.15.163-.353.178-.607h.909v7.863h1.78V97zM10.352 215H5.629v-.89h1.816v-5.848H5.63v-.797c.246 0 .51-.02.79-.062.282-.04.495-.1.64-.178.18-.098.32-.222.424-.372.104-.15.163-.353.18-.607h.907v7.863h1.782V215zm4.16 0h-1.4v-1.67h1.4V215zm8.531-2.455h-1.295V215h-1.125v-2.455h-4.178v-1.348l4.225-4.922h1.078v5.332h1.295v.938zm-2.42-.938v-3.937l-3.38 3.937h3.38zM26.506 215h-1.4v-1.67h1.4V215zm8.531-2.455h-1.295V215h-1.125v-2.455H28.44v-1.348l4.225-4.922h1.078v5.332h1.295v.938zm-2.42-.938v-3.937l-3.38 3.937h3.38zM59.352 97h-4.723v-.89h1.816v-5.848H54.63v-.797c.246 0 .51-.02.79-.062.282-.04.495-.1.64-.178.18-.098.32-.222.424-.372.104-.15.163-.353.18-.607h.907v7.863h1.782V97zm4.16 0h-1.4v-1.67h1.4V97zm8.531-2.455h-1.295V97h-1.125v-2.455h-4.178v-1.348l4.225-4.922h1.078v5.332h1.295v.938zm-2.42-.938V89.67l-3.38 3.937h3.38zM75.506 97h-1.4v-1.67h1.4V97zm8.332 0h-5.906v-1.225c.41-.351.82-.703 1.233-1.054a22.93 22.93 0 0 0 1.151-1.05c.75-.726 1.264-1.303 1.541-1.73a2.5 2.5 0 0 0 .416-1.386c0-.453-.149-.808-.448-1.064-.299-.256-.716-.384-1.25-.384-.356 0-.741.063-1.155.188a4.697 4.697 0 0 0-1.213.574h-.059v-1.23c.278-.137.648-.262 1.11-.375a5.65 5.65 0 0 1 1.346-.17c.894 0 1.595.216 2.103.647.508.432.762 1.017.762 1.755 0 .332-.042.642-.126.929-.084.287-.208.56-.372.817-.153.242-.331.48-.536.715-.206.234-.455.494-.748.78-.417.41-.85.807-1.294 1.192-.446.384-.862.74-1.248 1.069h4.693V97zM59.352 215h-4.723v-.89h1.816v-5.848H54.63v-.797c.246 0 .51-.02.79-.062.282-.04.495-.1.64-.178.18-.098.32-.222.424-.372.104-.15.163-.353.18-.607h.907v7.863h1.782V215zm4.16 0h-1.4v-1.67h1.4V215zm8.531-2.455h-1.295V215h-1.125v-2.455h-4.178v-1.348l4.225-4.922h1.078v5.332h1.295v.938zm-2.42-.938v-3.937l-3.38 3.937h3.38zM75.506 215h-1.4v-1.67h1.4V215zm8.262-2.771c0 .406-.075.794-.223 1.166a2.706 2.706 0 0 1-.61.937 2.878 2.878 0 0 1-1.004.63c-.389.146-.84.22-1.35.22-.477 0-.936-.05-1.378-.15-.441-.1-.814-.22-1.119-.36v-1.236h.082c.32.203.695.376 1.125.518.43.143.852.214 1.266.214.277 0 .546-.04.805-.117.26-.078.492-.215.695-.41.172-.168.301-.37.39-.604.087-.234.131-.506.131-.814 0-.301-.052-.555-.155-.762a1.286 1.286 0 0 0-.43-.498 1.892 1.892 0 0 0-.742-.314 4.805 4.805 0 0 0-.976-.09c-.343 0-.674.023-.993.07-.318.047-.593.094-.823.14v-4.494h5.25v1.026h-4.12v2.32a10.694 10.694 0 0 1 .974-.047c.472 0 .886.04 1.242.12.355.08.681.222.978.425.313.215.555.492.727.832.172.34.258.766.258 1.278zM109.352 97h-4.723v-.89h1.816v-5.848h-1.816v-.797c.246 0 .51-.02.79-.062.282-.04.495-.1.64-.178.18-.098.32-.222.424-.372.104-.15.163-.353.18-.607h.907v7.863h1.782V97zm4.16 0h-1.4v-1.67h1.4V97zm8.531-2.455h-1.295V97h-1.125v-2.455h-4.178v-1.348l4.225-4.922h1.078v5.332h1.295v.938zm-2.42-.938V89.67l-3.38 3.937h3.38zM125.506 97h-1.4v-1.67h1.4V97zm7.564-4.201c.188.168.342.379.463.633s.182.582.182.984c0 .398-.072.764-.217 1.096a2.604 2.604 0 0 1-.61.867 2.765 2.765 0 0 1-1.034.606c-.396.131-.83.197-1.303.197-.485 0-.961-.058-1.43-.173a6.72 6.72 0 0 1-1.154-.378v-1.225h.088c.332.219.722.4 1.172.545.449.145.882.217 1.3.217.246 0 .508-.041.786-.123.277-.082.501-.203.673-.363a1.71 1.71 0 0 0 .402-.569c.088-.207.132-.468.132-.785 0-.312-.05-.571-.15-.776a1.193 1.193 0 0 0-.413-.484 1.615 1.615 0 0 0-.639-.249 4.575 4.575 0 0 0-.808-.067h-.528v-.973h.41c.594 0 1.068-.124 1.421-.372.354-.248.53-.61.53-1.087 0-.21-.044-.395-.134-.553a1.1 1.1 0 0 0-.375-.39 1.686 1.686 0 0 0-.54-.211 3.27 3.27 0 0 0-.65-.059c-.37 0-.765.067-1.183.2-.418.132-.813.32-1.184.562h-.058v-1.224c.277-.137.647-.263 1.11-.378a5.56 5.56 0 0 1 1.345-.173c.426 0 .8.039 1.125.117.324.078.617.203.879.375.281.187.494.414.638.68.145.265.217.576.217.931 0 .485-.17.907-.512 1.269a2.247 2.247 0 0 1-1.21.682v.082c.187.032.402.097.644.197s.447.223.615.372zM109.352 215h-4.723v-.89h1.816v-5.848h-1.816v-.797c.246 0 .51-.02.79-.062.282-.04.495-.1.64-.178.18-.098.32-.222.424-.372.104-.15.163-.353.18-.607h.907v7.863h1.782V215zm4.16 0h-1.4v-1.67h1.4V215zm8.531-2.455h-1.295V215h-1.125v-2.455h-4.178v-1.348l4.225-4.922h1.078v5.332h1.295v.938zm-2.42-.938v-3.937l-3.38 3.937h3.38zm5.883 3.393h-1.4v-1.67h1.4V215zm8.46-2.83c0 .887-.291 1.61-.875 2.17-.584.561-1.3.842-2.148.842-.43 0-.82-.067-1.172-.2a2.686 2.686 0 0 1-.931-.591c-.336-.325-.595-.754-.777-1.29-.181-.535-.272-1.18-.272-1.933 0-.773.083-1.459.249-2.057.166-.597.43-1.129.794-1.593a3.492 3.492 0 0 1 1.33-1.035c.543-.248 1.176-.372 1.899-.372.23 0 .423.01.58.03.156.02.314.054.474.105v1.12h-.058a2.172 2.172 0 0 0-.496-.168 2.902 2.902 0 0 0-.676-.079c-.84 0-1.51.263-2.01.788-.5.526-.791 1.236-.873 2.13.328-.2.651-.35.97-.454a3.574 3.574 0 0 1 1.104-.155c.371 0 .698.034.982.102.283.069.573.206.87.413.343.239.602.54.776.903.174.363.26.804.26 1.324zm-1.189.047c0-.363-.053-.664-.16-.903a1.547 1.547 0 0 0-.531-.62 1.494 1.494 0 0 0-.598-.247 3.895 3.895 0 0 0-1.611.059c-.285.078-.578.2-.879.363a5.96 5.96 0 0 0-.023.55c0 .618.063 1.105.19 1.463.127.357.302.64.524.847.18.171.374.297.583.377.21.08.437.12.683.12.566 0 1.012-.172 1.336-.518.324-.346.486-.843.486-1.491z" fill="#181818"/></g></svg>