<svg width="182" height="98" xmlns="http://www.w3.org/2000/svg"><g fill="none" fill-rule="evenodd"><g><rect fill="#FFF" fill-rule="nonzero" width="52" height="79" rx="4"/><rect stroke="#000" x=".5" y=".5" width="53" height="79" rx="4"/><path fill="#000" fill-rule="nonzero" d="M16.667 34.147h20v.922h-20zM16.667 35.861v5.806h2.507v-2.474h5.833c.19.74.862 1.286 1.662 1.286.799 0 1.467-.546 1.657-1.286h5.834v2.474h2.507V35.86H34.16v2.474h-5.834a1.712 1.712 0 0 0-1.657-1.286c-.8 0-1.472.546-1.662 1.286h-5.833v-2.474h-2.507z"/><path d="M26.667 48c-6.904 0-12.5 5.596-12.5 12.5 0 6.466 4.91 11.784 11.204 12.433V56.612h-2.197l3.493-6.05 3.492 6.05h-2.196v16.321c6.294-.649 11.204-5.967 11.204-12.433 0-6.904-5.597-12.5-12.5-12.5z" fill="#0D69E1" fill-rule="nonzero"/><path d="M18.646 10c-1.097 0-1.98.883-1.98 1.98v21.374h20V11.98c0-1.096-.882-1.979-1.979-1.979H18.646z" fill="#FF8000" fill-rule="nonzero"/></g><g transform="translate(64)"><rect fill="#FFF" fill-rule="nonzero" width="52" height="79" rx="4"/><rect stroke="#000" x=".5" y=".5" width="53" height="79" rx="4"/></g><g fill-rule="nonzero"><path fill="#000" d="M80.667 34.147h20v.922h-20zM80.667 35.861v5.806h2.507v-2.474h5.833c.19.74.862 1.286 1.662 1.286.799 0 1.467-.546 1.657-1.286h5.834v2.474h2.507V35.86H98.16v2.474h-5.834a1.712 1.712 0 0 0-1.657-1.286c-.8 0-1.472.546-1.662 1.286h-5.833v-2.474h-2.507z"/><path d="M82.646 10c-1.097 0-1.98.883-1.98 1.98v21.374h20V11.98c0-1.096-.882-1.979-1.979-1.979H82.646z" fill="#FF8000"/><path d="M90.667 48c6.903 0 12.5 5.596 12.5 12.5S97.57 73 90.667 73c-1.358 0-2.665-.218-3.888-.618V61.796c0-.954.774-1.728 1.728-1.728h6.048v2.196l6.049-3.493-6.05-3.492v2.196h-6.047a4.32 4.32 0 0 0-4.32 4.321v9.396a12.494 12.494 0 0 1-6.02-10.692c0-6.904 5.596-12.5 12.5-12.5z" fill="#0D69E1"/></g><g transform="translate(128)"><rect fill="#FFF" fill-rule="nonzero" width="52" height="79" rx="4"/><rect stroke="#000" x=".5" y=".5" width="53" height="79" rx="4"/></g><g fill-rule="nonzero"><path fill="#000" d="M144.667 34.147h20v.922h-20zM144.667 35.861v5.806h2.507v-2.474h5.833c.19.74.862 1.286 1.662 1.286.799 0 1.467-.546 1.657-1.286h5.834v2.474h2.507V35.86h-2.507v2.474h-5.834a1.712 1.712 0 0 0-1.657-1.286c-.8 0-1.472.546-1.662 1.286h-5.833v-2.474h-2.507z"/><path d="M146.646 10c-1.097 0-1.98.883-1.98 1.98v21.374h20V11.98c0-1.096-.882-1.979-1.979-1.979h-16.041z" fill="#FF8000"/><path d="M154.667 48c-6.904 0-12.5 5.596-12.5 12.5s5.596 12.5 12.5 12.5c1.357 0 2.664-.218 3.888-.618V61.796c0-.954-.774-1.728-1.729-1.728h-6.047v2.196l-6.05-3.493 6.05-3.492v2.196h6.047a4.32 4.32 0 0 1 4.32 4.321v9.396a12.494 12.494 0 0 0 6.02-10.692c0-6.904-5.596-12.5-12.5-12.5z" fill="#0D69E1"/></g><path d="M17.049 94.545h-1.295V97h-1.125v-2.455H10.45v-1.348l4.225-4.922h1.078v5.332h1.295v.938zm-2.42-.938V89.67l-3.381 3.937h3.38zM20.512 97h-1.4v-1.67h1.4V97zm8.396-2.432c0 .754-.294 1.381-.882 1.881-.588.5-1.327.75-2.217.75-.946 0-1.699-.244-2.26-.732-.56-.488-.84-1.113-.84-1.875 0-.485.14-.923.422-1.316.281-.392.678-.704 1.19-.934v-.035c-.47-.25-.816-.524-1.04-.82-.225-.298-.338-.669-.338-1.114 0-.656.27-1.203.809-1.64.539-.438 1.225-.657 2.057-.657.87 0 1.566.21 2.086.627.52.418.779.95.779 1.594 0 .394-.123.782-.37 1.163-.245.38-.607.679-1.083.894v.035c.547.234.965.523 1.254.867.289.344.433.781.433 1.312zm-1.388-4.26c0-.417-.162-.75-.484-.998-.322-.248-.733-.373-1.233-.373-.492 0-.896.118-1.21.352-.315.234-.472.55-.472.95 0 .28.08.524.237.729.159.205.398.387.718.548.145.07.353.162.624.275.272.113.536.207.794.281.387-.258.654-.525.803-.802.148-.278.223-.598.223-.961zm.181 4.372c0-.36-.079-.648-.237-.865-.158-.216-.468-.434-.929-.653a5.885 5.885 0 0 0-.603-.24c-.22-.074-.51-.178-.873-.31a2.306 2.306 0 0 0-.847.779 2 2 0 0 0-.32 1.113c0 .527.182.963.546 1.307.363.343.824.515 1.382.515.57 0 1.027-.146 1.368-.44.342-.292.513-.695.513-1.206zM32.506 97h-1.4v-1.67h1.4V97zm7.834 0h-4.723v-.89h1.817v-5.848h-1.817v-.797c.246 0 .51-.02.791-.062.281-.04.494-.1.639-.178.18-.098.321-.222.425-.372.103-.15.163-.353.178-.607h.909v7.863h1.78V97zM81.049 94.545h-1.295V97h-1.125v-2.455H74.45v-1.348l4.225-4.922h1.078v5.332h1.295v.938zm-2.42-.938V89.67l-3.381 3.937h3.38zM84.512 97h-1.4v-1.67h1.4V97zm8.396-2.432c0 .754-.294 1.381-.882 1.881-.588.5-1.327.75-2.217.75-.946 0-1.699-.244-2.26-.732-.56-.488-.84-1.113-.84-1.875 0-.485.14-.923.422-1.316.281-.392.678-.704 1.19-.934v-.035c-.47-.25-.816-.524-1.04-.82-.225-.298-.338-.669-.338-1.114 0-.656.27-1.203.809-1.64.539-.438 1.225-.657 2.057-.657.87 0 1.566.21 2.086.627.52.418.779.95.779 1.594 0 .394-.123.782-.37 1.163-.245.38-.607.679-1.083.894v.035c.547.234.965.523 1.254.867.289.344.433.781.433 1.312zm-1.388-4.26c0-.417-.162-.75-.484-.998-.322-.248-.733-.373-1.233-.373-.492 0-.896.118-1.21.352-.315.234-.472.55-.472.95 0 .28.08.524.237.729.159.205.398.387.718.548.145.07.353.162.624.275.272.113.536.207.794.281.387-.258.654-.525.803-.802.148-.278.223-.598.223-.961zm.181 4.372c0-.36-.079-.648-.237-.865-.158-.216-.468-.434-.929-.653a5.885 5.885 0 0 0-.603-.24c-.22-.074-.51-.178-.873-.31a2.306 2.306 0 0 0-.847.779 2 2 0 0 0-.32 1.113c0 .527.182.963.546 1.307.363.343.824.515 1.382.515.57 0 1.027-.146 1.368-.44.342-.292.513-.695.513-1.206zM96.506 97h-1.4v-1.67h1.4V97zm8.332 0h-5.906v-1.225c.41-.351.82-.703 1.233-1.054a22.93 22.93 0 0 0 1.151-1.05c.75-.726 1.264-1.303 1.541-1.73a2.5 2.5 0 0 0 .416-1.386c0-.453-.149-.808-.448-1.064-.299-.256-.716-.384-1.25-.384-.356 0-.741.063-1.155.188a4.697 4.697 0 0 0-1.213.574h-.059v-1.23c.278-.137.648-.262 1.11-.375a5.65 5.65 0 0 1 1.346-.17c.894 0 1.595.216 2.103.647.508.432.762 1.017.762 1.755 0 .332-.042.642-.126.929-.084.287-.208.56-.372.817-.153.242-.331.48-.536.715-.206.234-.455.494-.748.78-.417.41-.85.807-1.294 1.192-.446.384-.862.74-1.248 1.069h4.693V97zM145.049 94.545h-1.295V97h-1.125v-2.455h-4.178v-1.348l4.225-4.922h1.078v5.332h1.295v.938zm-2.42-.938V89.67l-3.381 3.937h3.38zM148.512 97h-1.4v-1.67h1.4V97zm8.396-2.432c0 .754-.294 1.381-.882 1.881-.588.5-1.327.75-2.217.75-.946 0-1.699-.244-2.26-.732-.56-.488-.84-1.113-.84-1.875 0-.485.14-.923.422-1.316.281-.392.678-.704 1.19-.934v-.035c-.47-.25-.816-.524-1.04-.82-.225-.298-.338-.669-.338-1.114 0-.656.27-1.203.809-1.64.539-.438 1.225-.657 2.057-.657.87 0 1.566.21 2.086.627.52.418.779.95.779 1.594 0 .394-.123.782-.37 1.163-.245.38-.607.679-1.083.894v.035c.547.234.965.523 1.254.867.289.344.433.781.433 1.312zm-1.388-4.26c0-.417-.162-.75-.484-.998-.322-.248-.733-.373-1.233-.373-.492 0-.896.118-1.21.352-.315.234-.472.55-.472.95 0 .28.08.524.237.729.159.205.398.387.718.548.145.07.353.162.624.275.272.113.536.207.794.281.387-.258.654-.525.803-.802.148-.278.223-.598.223-.961zm.181 4.372c0-.36-.079-.648-.237-.865-.158-.216-.468-.434-.929-.653a5.885 5.885 0 0 0-.603-.24c-.22-.074-.51-.178-.873-.31a2.306 2.306 0 0 0-.847.779 2 2 0 0 0-.32 1.113c0 .527.182.963.546 1.307.363.343.824.515 1.382.515.57 0 1.027-.146 1.368-.44.342-.292.513-.695.513-1.206zm4.805 2.32h-1.4v-1.67h1.4V97zm7.564-4.201c.188.168.342.379.463.633s.182.582.182.984c0 .398-.072.764-.217 1.096a2.604 2.604 0 0 1-.61.867 2.765 2.765 0 0 1-1.034.606c-.396.131-.83.197-1.303.197-.485 0-.961-.058-1.43-.173a6.72 6.72 0 0 1-1.154-.378v-1.225h.088c.332.219.722.4 1.172.545.449.145.882.217 1.3.217.246 0 .508-.041.786-.123.277-.082.501-.203.673-.363a1.71 1.71 0 0 0 .402-.569c.088-.207.132-.468.132-.785 0-.312-.05-.571-.15-.776a1.193 1.193 0 0 0-.413-.484 1.615 1.615 0 0 0-.639-.249 4.575 4.575 0 0 0-.808-.067h-.528v-.973h.41c.594 0 1.068-.124 1.421-.372.354-.248.53-.61.53-1.087 0-.21-.044-.395-.134-.553a1.1 1.1 0 0 0-.375-.39 1.686 1.686 0 0 0-.54-.211 3.27 3.27 0 0 0-.65-.059c-.37 0-.765.067-1.183.2-.418.132-.813.32-1.184.562h-.058v-1.224c.277-.137.647-.263 1.11-.378a5.56 5.56 0 0 1 1.345-.173c.426 0 .8.039 1.125.117.324.078.617.203.879.375.281.187.494.414.638.68.145.265.217.576.217.931 0 .485-.17.907-.512 1.269a2.247 2.247 0 0 1-1.21.682v.082c.187.032.402.097.644.197s.447.223.615.372z" fill="#181818"/></g></svg>