<svg width="174" height="107" xmlns="http://www.w3.org/2000/svg"><g fill="none" fill-rule="evenodd"><g transform="translate(2 2)"><rect fill="#FFF" fill-rule="nonzero" width="80" height="80" rx="6"/><rect stroke="#000" x=".5" y=".5" width="79" height="79" rx="6"/><path d="M5.803 3A2.797 2.797 0 0 0 3 5.803v32.89h74v-7.326H59.621a6.54 6.54 0 1 0-13.08 0h-1.31a2.61 2.61 0 0 1-2.614-2.618v-9.597c0-.459.121-.909.35-1.306l4.58-7.933a2.611 2.611 0 0 1 2.264-1.307H77V5.803A2.797 2.797 0 0 0 74.197 3H5.803zm44.221 7.439a1.306 1.306 0 0 0-1.044.651l-3.02 5.235a1.31 1.31 0 0 0 1.132 1.962H53.08a1.31 1.31 0 0 0 1.31-1.31v-5.232c0-.724-.586-1.306-1.31-1.306h-2.968c-.03 0-.059-.002-.088 0zm8.29 0c-.724 0-1.31.582-1.31 1.306v5.232c0 .724.586 1.31 1.31 1.31h7.849c.724 0 1.307-.586 1.307-1.31v-5.232c0-.724-.583-1.306-1.307-1.306h-7.849zm13.08 0c-.725 0-1.307.582-1.307 1.306v5.232c0 .724.582 1.31 1.307 1.31H77v-7.848h-5.606zm-44.474.784v6.538H40v7.849H26.92v6.542L8.606 21.686 26.92 11.223zm26.16 14.913a5.233 5.233 0 0 1 5.234 5.23 5.233 5.233 0 0 1-10.466 0 5.23 5.23 0 0 1 5.232-5.23zm0 2.613a2.615 2.615 0 0 0-2.614 2.618 2.615 2.615 0 1 0 5.231 0 2.618 2.618 0 0 0-2.617-2.618zM3 41.307v14.39h50.08v-6.542l18.314 10.466L53.08 70.087v-6.542H3v10.652A2.797 2.797 0 0 0 5.803 77h68.394A2.797 2.797 0 0 0 77 74.197v-32.89H3z" fill="#0D69E1" fill-rule="nonzero"/></g><g transform="translate(92 2)"><rect fill="#FFF" fill-rule="nonzero" width="80" height="80" rx="6"/><rect stroke="#000" x=".5" y=".5" width="79" height="79" rx="6"/><path d="M5.803 3A2.797 2.797 0 0 0 3 5.803v32.89h74V25.61H26.92v6.542L8.606 21.686 26.92 11.223v6.538H77V5.803A2.797 2.797 0 0 0 74.197 3H5.803zM3 41.307V46.8h27.19c.934 0 1.796.5 2.263 1.31l4.58 7.93c.229.397.35.847.35 1.306V66.948a2.606 2.606 0 0 1-2.614 2.613h-1.31a6.536 6.536 0 0 0-6.539-6.538 6.54 6.54 0 0 0-6.541 6.538H3v4.636A2.797 2.797 0 0 0 5.803 77h68.394A2.797 2.797 0 0 0 77 74.197v-32.89H3zm0 7.326v7.849h5.606c.725 0 1.307-.582 1.307-1.307V49.94c0-.724-.582-1.307-1.307-1.307H3zm10.837 0c-.724 0-1.307.583-1.307 1.307v5.235c0 .725.583 1.307 1.307 1.307h7.849c.724 0 1.31-.582 1.31-1.307V49.94c0-.724-.586-1.307-1.31-1.307h-7.849zm13.083 0c-.724 0-1.31.583-1.31 1.307v5.235c0 .725.586 1.307 1.31 1.307H32.908a1.306 1.306 0 0 0 1.132-1.962l-3.02-5.231a1.307 1.307 0 0 0-1.132-.656H26.92zm26.16.522l18.314 10.466L53.08 70.087v-6.542H40v-7.848h13.08v-6.542zM26.92 64.33a5.233 5.233 0 1 1-.004 10.465 5.233 5.233 0 0 1 .004-10.465zm0 2.618a2.615 2.615 0 1 0-.004 5.23 2.615 2.615 0 0 0 .004-5.23z" fill="#0D69E1" fill-rule="nonzero"/></g><path d="M28.78 96.229c0 .406-.075.794-.223 1.166a2.706 2.706 0 0 1-.61.937 2.878 2.878 0 0 1-1.005.63c-.388.146-.838.22-1.35.22-.477 0-.936-.05-1.377-.15-.442-.1-.815-.22-1.12-.36v-1.236h.083c.32.203.695.376 1.125.518.43.143.851.214 1.265.214.278 0 .546-.04.806-.117.26-.078.491-.215.694-.41.172-.168.302-.37.39-.604.088-.234.132-.506.132-.814 0-.301-.052-.555-.155-.762a1.286 1.286 0 0 0-.431-.498 1.892 1.892 0 0 0-.741-.314 4.805 4.805 0 0 0-.976-.09c-.344 0-.675.023-.993.07-.318.047-.593.094-.823.14v-4.494h5.25v1.026H24.6v2.32a10.694 10.694 0 0 1 .973-.047c.473 0 .887.04 1.242.12.356.08.682.222.979.425.312.215.555.492.726.832.172.34.258.766.258 1.278zM32.511 99h-1.4v-1.67h1.4V99zm7.834 0h-4.723v-.89h1.816v-5.848h-1.816v-.797c.246 0 .51-.02.791-.062.281-.04.494-.1.639-.178.18-.098.321-.222.425-.372.103-.15.163-.353.178-.607h.908v7.863h1.782V99zm7.36-4.201c.187.168.34.379.462.633.121.254.182.582.182.984 0 .398-.073.764-.217 1.096a2.604 2.604 0 0 1-.61.867 2.765 2.765 0 0 1-1.034.606c-.396.131-.83.197-1.303.197-.485 0-.961-.058-1.43-.173a6.72 6.72 0 0 1-1.154-.378v-1.225h.087c.332.219.723.4 1.172.545.45.145.883.217 1.301.217.246 0 .508-.041.785-.123.278-.082.502-.203.674-.363a1.71 1.71 0 0 0 .401-.569c.088-.207.132-.468.132-.785 0-.312-.05-.571-.15-.776a1.193 1.193 0 0 0-.412-.484 1.615 1.615 0 0 0-.639-.249 4.575 4.575 0 0 0-.808-.067h-.528v-.973h.41c.594 0 1.068-.124 1.421-.372.354-.248.53-.61.53-1.087 0-.21-.044-.395-.134-.553a1.1 1.1 0 0 0-.375-.39 1.686 1.686 0 0 0-.54-.211 3.27 3.27 0 0 0-.65-.059c-.37 0-.765.067-1.183.2-.418.132-.813.32-1.184.562h-.058v-1.224c.277-.137.647-.263 1.11-.378a5.56 5.56 0 0 1 1.345-.173c.425 0 .8.039 1.125.117.324.078.617.203.878.375.282.187.495.414.64.68.144.265.216.576.216.931 0 .485-.17.907-.513 1.269a2.246 2.246 0 0 1-1.21.682v.082c.188.032.403.097.645.197s.447.223.615.372zM52.134 99h-1.4v-1.67h1.4V99zm7.834 0h-4.723v-.89h1.816v-5.848h-1.816v-.797c.246 0 .51-.02.791-.062.281-.04.494-.1.639-.178.18-.098.321-.222.425-.372.103-.15.163-.353.178-.607h.908v7.863h1.782V99zM118.78 96.229c0 .406-.075.794-.223 1.166a2.706 2.706 0 0 1-.61.937 2.878 2.878 0 0 1-1.005.63c-.388.146-.838.22-1.35.22-.477 0-.936-.05-1.377-.15-.442-.1-.815-.22-1.12-.36v-1.236h.083c.32.203.695.376 1.125.518.43.143.851.214 1.265.214.278 0 .546-.04.806-.117.26-.078.491-.215.694-.41.172-.168.302-.37.39-.604.088-.234.132-.506.132-.814 0-.301-.052-.555-.155-.762a1.286 1.286 0 0 0-.431-.498 1.892 1.892 0 0 0-.741-.314 4.805 4.805 0 0 0-.976-.09c-.344 0-.675.023-.993.07-.318.047-.593.094-.823.14v-4.494h5.25v1.026h-4.12v2.32a10.694 10.694 0 0 1 .973-.047c.473 0 .887.04 1.242.12.356.08.682.222.979.425.312.215.555.492.726.832.172.34.258.766.258 1.278zM122.511 99h-1.4v-1.67h1.4V99zm7.834 0h-4.723v-.89h1.816v-5.848h-1.816v-.797c.246 0 .51-.02.791-.062.281-.04.494-.1.639-.178.18-.098.321-.222.425-.372.103-.15.163-.353.178-.607h.908v7.863h1.782V99zm7.36-4.201c.187.168.34.379.462.633.121.254.182.582.182.984 0 .398-.073.764-.217 1.096a2.604 2.604 0 0 1-.61.867 2.765 2.765 0 0 1-1.034.606c-.396.131-.83.197-1.303.197-.485 0-.961-.058-1.43-.173a6.72 6.72 0 0 1-1.154-.378v-1.225h.087c.332.219.723.4 1.172.545.45.145.883.217 1.301.217.246 0 .508-.041.785-.123.278-.082.502-.203.674-.363a1.71 1.71 0 0 0 .401-.569c.088-.207.132-.468.132-.785 0-.312-.05-.571-.15-.776a1.193 1.193 0 0 0-.412-.484 1.615 1.615 0 0 0-.639-.249 4.575 4.575 0 0 0-.808-.067h-.528v-.973h.41c.594 0 1.068-.124 1.421-.372.354-.248.53-.61.53-1.087 0-.21-.044-.395-.134-.553a1.1 1.1 0 0 0-.375-.39 1.686 1.686 0 0 0-.54-.211 3.27 3.27 0 0 0-.65-.059c-.37 0-.765.067-1.183.2-.418.132-.813.32-1.184.562h-.058v-1.224c.277-.137.647-.263 1.11-.378a5.56 5.56 0 0 1 1.345-.173c.425 0 .8.039 1.125.117.324.078.617.203.879.375.28.187.494.414.638.68.145.265.217.576.217.931 0 .485-.17.907-.513 1.269a2.246 2.246 0 0 1-1.21.682v.082c.188.032.403.097.645.197s.447.223.615.372zM142.134 99h-1.4v-1.67h1.4V99zm8.332 0h-5.906v-1.225c.41-.351.82-.703 1.233-1.054a22.93 22.93 0 0 0 1.151-1.05c.75-.726 1.264-1.303 1.541-1.73a2.5 2.5 0 0 0 .416-1.386c0-.453-.15-.808-.448-1.064-.299-.256-.716-.384-1.25-.384-.356 0-.741.063-1.155.188a4.697 4.697 0 0 0-1.213.574h-.059v-1.23c.278-.137.648-.262 1.11-.375a5.65 5.65 0 0 1 1.345-.17c.895 0 1.596.216 2.104.647.508.432.762 1.017.762 1.755 0 .332-.042.642-.126.929-.084.287-.208.56-.372.817-.153.242-.331.48-.537.715-.205.234-.454.494-.747.78-.418.41-.85.807-1.295 1.192-.445.384-.86.74-1.248 1.069h4.694V99z" fill="#181818"/></g></svg>