<svg width="197" height="270" xmlns="http://www.w3.org/2000/svg"><g fill="none" fill-rule="evenodd"><g transform="translate(29 21)"><rect fill="#FFF" fill-rule="nonzero" width="140" height="70" rx="6"/><rect stroke="#000" x=".6" y=".6" width="138.8" height="68.8" rx="6"/><path d="M5.444 3A2.429 2.429 0 0 0 3 5.424v59.152A2.429 2.429 0 0 0 5.444 67h41.218v-8.242h2.282V67H90V3H72.893v43.312h5.704l-9.125 15.84-9.125-15.84h5.704V3H48.944v8.242h-2.282V3H28.416v43.312h5.703l-9.125 15.84-9.124-15.84h5.703V3H5.443zM93 3v64h18.387V23.688h-5.747l9.195-15.84 9.196 15.84h-5.748V67h16.254c1.365 0 2.463-1.081 2.463-2.424V5.424C137 4.081 135.902 3 134.537 3H93zM47 14h2v7h-2v-7zm0 9h2v7h-2v-7zm0 9h2v7h-2v-7zm0 8h2v7h-2v-7zm0 9h2v7h-2v-7z" fill="#0D69E1" fill-rule="nonzero"/></g><g transform="translate(29 101)"><rect fill="#FFF" fill-rule="nonzero" width="140" height="70" rx="35"/><rect stroke="#000" x=".6" y=".6" width="138.8" height="68.8" rx="6"/><path d="M5.463 3C4.1 3 3 4.081 3 5.424v59.152C3 65.919 4.099 67 5.463 67H47.01V3H28.618v43.312h5.748l-9.197 15.84-9.197-15.84h5.749V3H5.463zM49.31 3v64H66.55V49.188c-4.664-1.442-8.045-5.728-8.045-10.794 0-5.066 3.381-9.353 8.045-10.794v-3.912h-5.748L70 7.848l9.197 15.84H73.45V27.6c4.664 1.441 8.045 5.728 8.045 10.794 0 5.066-3.381 9.352-8.045 10.794V67H90.69v-8.242h2.3V67h18.391V23.688h-5.748l9.197-15.84 9.197 15.84h-5.749V67h16.258C135.9 67 137 65.919 137 64.576V5.424C137 4.081 135.901 3 134.537 3H92.99v8.242h-2.3V3H49.31zM90.69 13.506h2.3v6.788h-2.3v-6.788zm0 9.049h2.3v6.787h-2.3v-6.787zm0 9.051h2.3v6.788h-2.3v-6.788zm0 9.052h2.3v6.787h-2.3v-6.787zm0 9.048h2.3v6.788h-2.3v-6.788z" fill="#0D69E1" fill-rule="nonzero"/><path d="M63.97 36a.772.772 0 0 0-.636.332l-1.203 1.755a.746.746 0 0 0-.131.422v2.32a.76.76 0 0 0 .767.755h.693a1.6 1.6 0 0 1 1.609-1.51 1.6 1.6 0 0 1 1.608 1.51h5.99a1.583 1.583 0 0 1 .922-1.359H66.91v-3.47a.76.76 0 0 0-.767-.755H63.97zm.041.453h1.748a.38.38 0 0 1 .384.377v1.056a.38.38 0 0 1-.384.378h-2.473a.38.38 0 0 1-.383-.378c0-.075.023-.148.066-.21l.724-1.057a.387.387 0 0 1 .318-.166z" fill="#000" fill-rule="nonzero"/><path d="M68.767 33a.76.76 0 0 0-.767.755v5.281h9.973v-5.281a.76.76 0 0 0-.767-.755h-8.439zM74.304 40c-.72 0-1.304.574-1.304 1.283 0 .708.584 1.282 1.304 1.282.72 0 1.304-.574 1.304-1.282 0-.709-.583-1.283-1.304-1.283zm0 .604c.382 0 .69.304.69.679 0 .375-.308.679-.69.679a.685.685 0 0 1-.69-.68c0-.374.309-.678.69-.678z" fill="#000" fill-rule="nonzero"/><path d="M75.923 41.358A1.583 1.583 0 0 0 75 40h2.383v1.358h-1.46zM65.304 40c-.72 0-1.304.574-1.304 1.283 0 .708.584 1.282 1.304 1.282.72 0 1.304-.574 1.304-1.282 0-.709-.583-1.283-1.304-1.283zm0 .604c.382 0 .69.304.69.679 0 .375-.308.679-.69.679a.685.685 0 0 1-.69-.68c0-.374.309-.678.69-.678z" fill="#000" fill-rule="nonzero"/><path d="M69.995 27C63.37 27 58 32.282 58 38.797c0 6.516 5.37 11.798 11.995 11.798 6.625 0 11.995-5.282 11.995-11.798C81.99 32.282 76.62 27 69.995 27zm0 1.995c5.505 0 9.967 4.388 9.967 9.802S75.5 48.6 69.995 48.6c-5.505 0-9.967-4.389-9.967-9.803 0-5.414 4.462-9.802 9.967-9.802z" fill="red" fill-rule="nonzero"/></g><g transform="translate(52 181)"><rect fill="#FFF" fill-rule="nonzero" width="93.333" height="70" rx="6"/><rect stroke="#000" x=".6" y=".6" width="92.133" height="68.8" rx="6"/><path d="M5.435 3A2.424 2.424 0 0 0 3 5.424v59.152A2.424 2.424 0 0 0 5.435 67h38.793V3H27.185v43.312h5.68l-9.088 15.84-9.09-15.84h5.681V3H5.435zm41.063 0v64H64.68V23.688h-5.682l9.09-15.84 9.088 15.84h-5.679V67h16.07A2.424 2.424 0 0 0 90 64.576V5.424A2.424 2.424 0 0 0 87.565 3H46.498z" fill="#0D69E1" fill-rule="nonzero"/></g></g></svg>