<svg width="140" height="86" xmlns="http://www.w3.org/2000/svg"><g transform="translate(0 7)" fill="none" fill-rule="evenodd"><rect fill="#FFF" fill-rule="nonzero" y="1" width="140" height="70" rx="35"/><path d="M6.426 4A2.42 2.42 0 0 0 4 6.424v59.152A2.42 2.42 0 0 0 6.426 68h25.075V46.182c0-2.5-2.03-4.524-4.531-4.524h-2.263l-.234 5.666-15.39-9.072 15.624-9.04v5.658h2.263c1.61 0 3.144.334 4.531.94V24.687h-5.663l9.06-15.84 9.057 15.84h-5.66V68h9.057v-7.112h2.266V68h16.985V24.688H60.94L70 8.848l9.06 15.84h-5.663V68h16.985v-7.112h2.266V68h9.057V31.476c0-6.248 5.072-11.315 11.325-11.315h2.263v-5.655l15.854 9.049-15.854 9.051v-5.658h-2.263a4.53 4.53 0 0 0-4.531 4.528V68h25.075A2.42 2.42 0 0 0 136 65.576V6.424A2.42 2.42 0 0 0 133.574 4H6.426zM47 34h2v7h-2v-7zm44 0h2v7h-2v-7zm-44 8h2v7h-2v-7zm44 0h2v7h-2v-7zM47 52h2v7h-2v-7zm44 0h2v7h-2v-7z" fill="#0D69E1" fill-rule="nonzero"/><rect stroke="#000" x="1.5" y="1.4" width="137" height="69" rx="6"/></g></svg>