<svg width="173" height="107" xmlns="http://www.w3.org/2000/svg"><g fill="none" fill-rule="evenodd"><g transform="translate(2 2)"><rect fill="#FFF" fill-rule="nonzero" width="80" height="80" rx="6"/><rect stroke="#000" x=".614" y=".614" width="78.771" height="78.771" rx="6"/><path d="M3 74.197A2.803 2.803 0 0 0 5.803 77h68.394A2.803 2.803 0 0 0 77 74.197V5.803A2.803 2.803 0 0 0 74.197 3H5.803A2.803 2.803 0 0 0 3 5.803v68.394zm3.512-10.792c0-.196.052-.39.15-.56L39.03 6.785a1.121 1.121 0 0 1 1.942 0l32.367 56.06a1.12 1.12 0 0 1-.971 1.682H7.633c-.619 0-1.12-.502-1.12-1.122z" fill="#0D69E1" fill-rule="nonzero"/><path fill="#000" fill-rule="nonzero" d="M20.469 55.922l-4.883 7.324h6.836l2.93-7.324zM37.803 55.922l-.977 7.324h6.348l-.977-7.324zM54.648 55.922l2.93 7.324h6.836l-4.883-7.324zM32.572 58.904a2.185 2.185 0 0 1-4.24-1.057l3.2-12.833a.919.919 0 0 1 .242-.428l5.785-5.784V26.579c0-.411.219-.79.574-.996l2.969-1.714a2.303 2.303 0 0 1 2.3 0l7.323 4.229c.711.41 1.15 1.17 1.15 1.99v8.05a1.725 1.725 0 0 1-3.45 0v-6.853a.92.92 0 0 0-.46-.797l-3.105-1.793v9.65c0 .305-.121.597-.337.813l-9.182 9.182a.92.92 0 0 0-.242.428l-2.527 10.136z"/><path d="M44.22 41.087l-3.198 3.199 8.765 15.182a2.185 2.185 0 0 0 3.784-2.185l-9.35-16.196zM36.409 36.323v-4.879l-6.567 6.567a1.724 1.724 0 1 0 2.44 2.439l4.127-4.127zM35.112 20.537c0 1.813 1.288 3.426 2.913 3.426 1.787 0 4.875-1.813 4.875-4.4 0-1.85-1.537-3.2-3.25-3.2-2.725 0-4.538 2.087-4.538 4.174z" fill="#000" fill-rule="nonzero"/></g><g transform="translate(91 2)"><rect fill="#FFF" fill-rule="nonzero" width="80" height="80" rx="6"/><rect stroke="#000" x=".614" y=".614" width="78.771" height="78.771" rx="6"/><path d="M3 74.197A2.803 2.803 0 0 0 5.803 77h68.394A2.803 2.803 0 0 0 77 74.197V5.803A2.803 2.803 0 0 0 74.197 3H5.803A2.803 2.803 0 0 0 3 5.803v68.394zm3.512-10.792c0-.196.052-.39.15-.56L39.03 6.785a1.121 1.121 0 0 1 1.942 0l32.367 56.06a1.12 1.12 0 0 1-.971 1.682H7.633c-.619 0-1.12-.502-1.12-1.122z" fill="#0D69E1" fill-rule="nonzero"/><path fill="#000" fill-rule="nonzero" d="M20.469 55.922l-4.883 7.324h6.836l2.93-7.324zM37.803 55.922l-.977 7.324h6.348l-.977-7.324zM54.648 55.922l2.93 7.324h6.836l-4.883-7.324zM47.428 58.904a2.185 2.185 0 0 0 4.24-1.057l-3.2-12.833a.919.919 0 0 0-.242-.428l-5.785-5.784V26.579c0-.411-.219-.79-.574-.996l-2.969-1.714a2.303 2.303 0 0 0-2.3 0l-7.323 4.229a2.298 2.298 0 0 0-1.15 1.99v8.05a1.725 1.725 0 0 0 3.45 0v-6.853a.92.92 0 0 1 .46-.797l3.105-1.793v9.65c0 .305.121.597.337.813l9.182 9.182a.92.92 0 0 1 .242.428l2.527 10.136z"/><path d="M35.78 41.087l3.198 3.199-8.765 15.182a2.185 2.185 0 0 1-3.784-2.185l9.35-16.196zM43.591 36.323v-4.879l6.567 6.567a1.724 1.724 0 1 1-2.44 2.439l-4.127-4.127zM44.888 20.537c0 1.813-1.288 3.426-2.913 3.426-1.787 0-4.875-1.813-4.875-4.4 0-1.85 1.537-3.2 3.25-3.2 2.725 0 4.538 2.087 4.538 4.174z" fill="#000" fill-rule="nonzero"/></g><path d="M28.78 96.229c0 .406-.075.794-.223 1.166a2.706 2.706 0 0 1-.61.937 2.878 2.878 0 0 1-1.005.63c-.388.146-.838.22-1.35.22-.477 0-.936-.05-1.377-.15-.442-.1-.815-.22-1.12-.36v-1.236h.083c.32.203.695.376 1.125.518.43.143.851.214 1.265.214.278 0 .546-.04.806-.117.26-.078.491-.215.694-.41.172-.168.302-.37.39-.604.088-.234.132-.506.132-.814 0-.301-.052-.555-.155-.762a1.286 1.286 0 0 0-.431-.498 1.892 1.892 0 0 0-.741-.314 4.805 4.805 0 0 0-.976-.09c-.344 0-.675.023-.993.07-.318.047-.593.094-.823.14v-4.494h5.25v1.026H24.6v2.32a10.694 10.694 0 0 1 .973-.047c.473 0 .887.04 1.242.12.356.08.682.222.979.425.312.215.555.492.726.832.172.34.258.766.258 1.278zM32.511 99h-1.4v-1.67h1.4V99zm7.834 0h-4.723v-.89h1.816v-5.848h-1.816v-.797c.246 0 .51-.02.791-.062.281-.04.494-.1.639-.178.18-.098.321-.222.425-.372.103-.15.163-.353.178-.607h.908v7.863h1.782V99zm8.115-4.887c0 .762-.087 1.453-.26 2.075-.175.62-.437 1.15-.789 1.587-.355.446-.8.79-1.336 1.032-.535.242-1.164.363-1.887.363-.203 0-.394-.01-.574-.032a2.44 2.44 0 0 1-.48-.103v-1.119h.058c.114.059.274.114.48.167.208.053.438.08.692.08.864 0 1.54-.26 2.03-.777.49-.518.775-1.232.853-2.142a4.424 4.424 0 0 1-1.025.469c-.32.094-.67.14-1.05.14a4.16 4.16 0 0 1-.975-.105 2.628 2.628 0 0 1-.876-.41 2.275 2.275 0 0 1-.776-.908c-.174-.368-.26-.807-.26-1.319 0-.89.292-1.615.878-2.174.586-.558 1.3-.837 2.145-.837a3.4 3.4 0 0 1 1.171.196c.36.13.674.327.944.589.332.324.588.741.767 1.25.18.51.27 1.17.27 1.978zm-1.184-.252c0-.605-.062-1.091-.187-1.459-.125-.367-.297-.652-.516-.855a1.682 1.682 0 0 0-.592-.378 2.004 2.004 0 0 0-.685-.114c-.563 0-1.007.175-1.333.527-.326.352-.49.846-.49 1.482 0 .372.053.674.159.909.105.234.283.44.533.615.176.121.37.202.58.243.211.041.445.062.703.062.305 0 .613-.041.926-.123a3.61 3.61 0 0 0 .879-.358 9.57 9.57 0 0 1 .015-.243 4.37 4.37 0 0 0 .008-.308zM52.135 99h-1.4v-1.67h1.4V99zm7.834 0h-4.723v-.89h1.816v-5.848h-1.816v-.797c.246 0 .51-.02.791-.062.281-.04.494-.1.639-.178.18-.098.321-.222.425-.372.103-.15.163-.353.178-.607h.908v7.863h1.782V99zM117.78 96.229c0 .406-.075.794-.223 1.166a2.706 2.706 0 0 1-.61.937 2.878 2.878 0 0 1-1.005.63c-.388.146-.838.22-1.35.22-.477 0-.936-.05-1.377-.15-.442-.1-.815-.22-1.12-.36v-1.236h.083c.32.203.695.376 1.125.518.43.143.851.214 1.265.214.278 0 .546-.04.806-.117.26-.078.491-.215.694-.41.172-.168.302-.37.39-.604.088-.234.132-.506.132-.814 0-.301-.052-.555-.155-.762a1.286 1.286 0 0 0-.431-.498 1.892 1.892 0 0 0-.741-.314 4.805 4.805 0 0 0-.976-.09c-.344 0-.675.023-.993.07-.318.047-.593.094-.823.14v-4.494h5.25v1.026h-4.12v2.32a10.694 10.694 0 0 1 .973-.047c.473 0 .887.04 1.242.12.356.08.682.222.979.425.312.215.555.492.726.832.172.34.258.766.258 1.278zM121.511 99h-1.4v-1.67h1.4V99zm7.834 0h-4.723v-.89h1.816v-5.848h-1.816v-.797c.246 0 .51-.02.791-.062.281-.04.494-.1.639-.178.18-.098.321-.222.425-.372.103-.15.163-.353.178-.607h.908v7.863h1.782V99zm8.115-4.887c0 .762-.087 1.453-.26 2.075-.175.62-.437 1.15-.789 1.587-.355.446-.8.79-1.336 1.032-.535.242-1.164.363-1.887.363-.203 0-.394-.01-.574-.032a2.44 2.44 0 0 1-.48-.103v-1.119h.058c.114.059.274.114.48.167.208.053.438.08.692.08.864 0 1.54-.26 2.03-.777.49-.518.775-1.232.853-2.142a4.424 4.424 0 0 1-1.025.469c-.32.094-.67.14-1.05.14a4.16 4.16 0 0 1-.975-.105 2.628 2.628 0 0 1-.876-.41 2.275 2.275 0 0 1-.776-.908c-.174-.368-.26-.807-.26-1.319 0-.89.292-1.615.878-2.174.586-.558 1.3-.837 2.145-.837a3.4 3.4 0 0 1 1.171.196c.36.13.674.327.944.589.332.324.588.741.767 1.25.18.51.27 1.17.27 1.978zm-1.184-.252c0-.605-.062-1.091-.187-1.459-.125-.367-.297-.652-.516-.855a1.682 1.682 0 0 0-.592-.378 2.004 2.004 0 0 0-.685-.114c-.563 0-1.007.175-1.333.527-.326.352-.49.846-.49 1.482 0 .372.053.674.159.909.105.234.283.44.533.615.176.121.37.202.58.243.211.041.445.062.703.062.305 0 .613-.041.926-.123a3.61 3.61 0 0 0 .879-.358 9.57 9.57 0 0 1 .015-.243 4.37 4.37 0 0 0 .008-.308zM141.135 99h-1.4v-1.67h1.4V99zm8.332 0h-5.906v-1.225c.41-.351.82-.703 1.233-1.054a22.93 22.93 0 0 0 1.151-1.05c.75-.726 1.264-1.303 1.541-1.73a2.5 2.5 0 0 0 .416-1.386c0-.453-.15-.808-.448-1.064-.299-.256-.716-.384-1.25-.384-.356 0-.741.063-1.155.188a4.697 4.697 0 0 0-1.213.574h-.059v-1.23c.278-.137.648-.262 1.11-.375a5.65 5.65 0 0 1 1.345-.17c.895 0 1.596.216 2.104.647.508.432.762 1.017.762 1.755 0 .332-.042.642-.126.929-.084.287-.208.56-.372.817-.153.242-.331.48-.537.715-.205.234-.454.494-.747.78-.418.41-.85.807-1.295 1.192-.445.384-.86.74-1.248 1.069h4.694V99z" fill="#181818"/></g></svg>