<svg width="291" height="65" xmlns="http://www.w3.org/2000/svg"><g fill="none" fill-rule="evenodd"><g fill-rule="nonzero" transform="translate(2 2)"><rect fill="#FFF" x="1" y=".333" width="136" height="44" rx="6"/><path d="M5.023.333A4.668 4.668 0 0 0 .333 5v34.667a4.668 4.668 0 0 0 4.69 4.666h128.621a4.668 4.668 0 0 0 4.69-4.666V5a4.668 4.668 0 0 0-4.69-4.667H5.023zm0 1.334h128.621A3.334 3.334 0 0 1 136.994 5v34.667a3.334 3.334 0 0 1-3.35 3.333H5.023a3.334 3.334 0 0 1-3.35-3.333V5a3.334 3.334 0 0 1 3.35-3.333z" fill="#1A1A1A"/><g fill="#000"><path d="M12.283 12.333c.002 1.556-.001 3.278-.009 5.167a277.95 277.95 0 0 1-.065 5.167c-.035 1.555-.094 2.61-.176 3.166-.193.911-.592 1.633-1.197 2.167-.604.534-1.183.915-1.737 1.143-.553.228-.849.34-.887.333l.571 3.357c.07.037.6-.092 1.592-.389.99-.296 2.02-.981 3.09-2.055 1.07-1.074 1.76-2.76 2.068-5.056.082-.91.14-2.145.176-3.703a295.277 295.277 0 0 0 .074-6.296h5.5v17h3.5v-20h-12.5zM45.797 32.334v-20h-3.75l-7.25 13.75v-13.75h-3.5v20h3.75l7.25-13.75v13.75zM52.293 12.334v20h3.5v-17h7.5v17h3.5v-20zM73.289 32.334h12.75v-3h-9.25v-6h7.25v-3h-7.25v-4.75h9v-3.25h-12.5zM91.542 32.334h13.75v4h3v-7h-2.25v-17h-3.5v17h-7.5v-17h-3.5zM113.288 12.333v20h3.5v-9.142c.031-.005.219-.023.562-.054.344-.031.656-.05.938-.054.737.006 1.357.226 1.86.66.502.433.965 1.047 1.39 1.84a184.694 184.694 0 0 0 2.174 3.75 78.349 78.349 0 0 1 1.719 3h4.357c-.867-.715-1.655-1.692-2.363-2.93a236.411 236.411 0 0 1-2.137-3.82c-.57-1.1-1.162-2.045-1.775-2.835-.612-.79-1.52-1.262-2.725-1.415.51-.067 1.096-.493 1.757-1.279a38.142 38.142 0 0 0 1.743-2.22c.501-.733.98-1.33 1.434-1.79.454-.46 1.143-.696 2.066-.71l-.75-3.5c-1.707.26-3.07 1.044-4.092 2.353a86.002 86.002 0 0 0-2.815 3.805c-.855 1.229-1.886 1.855-3.093 1.877a.679.679 0 0 1-.156-.021.306.306 0 0 1-.094-.05v-7.465h-3.5z"/></g></g><g fill-rule="nonzero"><path d="M156.333 3H281a6 6 0 0 1 6 6v31.333a6 6 0 0 1-6 6H156.333a6 6 0 0 1-6-6V9a6 6 0 0 1 6-6z" fill="#FFF"/><path d="M155.023 2.333A4.668 4.668 0 0 0 150.333 7v34.667a4.668 4.668 0 0 0 4.69 4.666h128.621a4.668 4.668 0 0 0 4.69-4.666V7a4.668 4.668 0 0 0-4.69-4.667H155.023zm0 1.334h128.621A3.334 3.334 0 0 1 286.994 7v34.667a3.334 3.334 0 0 1-3.35 3.333H155.023a3.334 3.334 0 0 1-3.35-3.333V7a3.334 3.334 0 0 1 3.35-3.333z" fill="#1A1A1A"/><path fill="#000" d="M158.333 26.667v14h121.334V15l-8.167-2.333L263.333 15v16.333H261v-4.666l-11.667-5.834-11.666 5.834v4.666h-2.334V29l-5.833-4.667h-7v-1.166h-7v1.166h-7L202.667 29v2.333h-2.334v-3.5L191 8l-9.333 19.833v3.5h-2.334v-4.666l-10.5-3.5z"/></g><path d="M58.78 61.229c0 .406-.075.794-.223 1.166a2.706 2.706 0 0 1-.61.937 2.878 2.878 0 0 1-1.005.63c-.388.146-.838.22-1.35.22-.477 0-.936-.05-1.377-.15-.442-.1-.815-.22-1.12-.36v-1.236h.083c.32.203.695.376 1.125.518.43.143.851.214 1.265.214.278 0 .546-.04.806-.117.26-.078.491-.215.694-.41.172-.168.302-.37.39-.604.088-.234.132-.506.132-.814 0-.301-.052-.555-.155-.762a1.286 1.286 0 0 0-.431-.498 1.892 1.892 0 0 0-.741-.314 4.805 4.805 0 0 0-.976-.09c-.344 0-.675.023-.993.07-.318.047-.593.094-.823.14v-4.494h5.25v1.026H54.6v2.32a10.694 10.694 0 0 1 .973-.047c.473 0 .887.04 1.242.12.356.08.682.222.979.425.312.215.555.492.726.832.172.34.258.766.258 1.278zM62.511 64h-1.4v-1.67h1.4V64zm8.332 0h-5.906v-1.225c.41-.351.82-.703 1.233-1.054a22.93 22.93 0 0 0 1.151-1.05c.75-.726 1.264-1.303 1.541-1.73a2.5 2.5 0 0 0 .416-1.386c0-.453-.15-.808-.448-1.064-.299-.256-.716-.384-1.25-.384-.356 0-.741.063-1.155.188a4.697 4.697 0 0 0-1.213.574h-.059v-1.23c.278-.137.648-.262 1.11-.375a5.65 5.65 0 0 1 1.345-.17c.895 0 1.596.216 2.104.647.508.432.762 1.017.762 1.755 0 .332-.042.642-.126.929-.084.287-.208.56-.372.817-.153.242-.331.48-.537.715-.205.234-.454.494-.747.78-.418.41-.85.807-1.295 1.192-.445.384-.86.74-1.248 1.069h4.694V64zm6.861-4.201c.188.168.342.379.463.633s.182.582.182.984c0 .398-.073.764-.217 1.096a2.604 2.604 0 0 1-.61.867 2.765 2.765 0 0 1-1.034.606c-.396.131-.83.197-1.303.197-.485 0-.961-.058-1.43-.173a6.72 6.72 0 0 1-1.154-.378v-1.225h.087c.332.219.723.4 1.172.545.45.145.883.217 1.301.217.246 0 .508-.041.785-.123.278-.082.502-.203.674-.363a1.71 1.71 0 0 0 .401-.569c.088-.207.132-.468.132-.785 0-.312-.05-.571-.15-.776a1.193 1.193 0 0 0-.412-.484 1.615 1.615 0 0 0-.639-.249 4.575 4.575 0 0 0-.808-.067h-.528v-.973h.41c.594 0 1.068-.124 1.421-.372.354-.248.53-.61.53-1.087 0-.21-.044-.395-.134-.553a1.1 1.1 0 0 0-.375-.39 1.686 1.686 0 0 0-.54-.211 3.27 3.27 0 0 0-.65-.059c-.37 0-.765.067-1.183.2-.418.132-.813.32-1.184.562h-.058v-1.224c.277-.137.647-.263 1.11-.378a5.56 5.56 0 0 1 1.345-.173c.425 0 .8.039 1.125.117.324.078.617.203.879.375.28.187.494.414.638.68.145.265.217.576.217.931 0 .485-.17.907-.513 1.269a2.246 2.246 0 0 1-1.21.682v.082c.188.032.403.097.645.197s.447.223.615.372zM82.135 64h-1.4v-1.67h1.4V64zm7.834 0h-4.723v-.89h1.817v-5.848h-1.817v-.797c.246 0 .51-.02.791-.062.281-.04.494-.1.639-.178.18-.098.321-.222.425-.372.103-.15.163-.353.178-.607h.909v7.863h1.78V64zM206.78 61.229c0 .406-.075.794-.223 1.166a2.706 2.706 0 0 1-.61.937 2.878 2.878 0 0 1-1.005.63c-.388.146-.838.22-1.35.22-.477 0-.936-.05-1.377-.15-.442-.1-.815-.22-1.12-.36v-1.236h.083c.32.203.695.376 1.125.518.43.143.851.214 1.265.214.278 0 .546-.04.806-.117.26-.078.491-.215.694-.41.172-.168.302-.37.39-.604.088-.234.132-.506.132-.814 0-.301-.052-.555-.155-.762a1.286 1.286 0 0 0-.431-.498 1.892 1.892 0 0 0-.741-.314 4.805 4.805 0 0 0-.976-.09c-.344 0-.675.023-.993.07-.318.047-.593.094-.823.14v-4.494h5.25v1.026h-4.12v2.32a10.694 10.694 0 0 1 .973-.047c.473 0 .887.04 1.242.12.356.08.682.222.979.425.312.215.555.492.726.832.172.34.258.766.258 1.278zM210.511 64h-1.4v-1.67h1.4V64zm8.332 0h-5.906v-1.225c.41-.351.82-.703 1.233-1.054a22.93 22.93 0 0 0 1.151-1.05c.75-.726 1.264-1.303 1.541-1.73a2.5 2.5 0 0 0 .416-1.386c0-.453-.15-.808-.448-1.064-.299-.256-.716-.384-1.25-.384-.356 0-.741.063-1.155.188a4.697 4.697 0 0 0-1.213.574h-.059v-1.23c.278-.137.648-.262 1.11-.375a5.65 5.65 0 0 1 1.345-.17c.895 0 1.596.216 2.104.647.508.432.762 1.017.762 1.755 0 .332-.042.642-.126.929-.084.287-.208.56-.372.817-.153.242-.331.48-.537.715-.205.234-.454.494-.747.78-.418.41-.85.807-1.295 1.192-.445.384-.86.74-1.248 1.069h4.694V64zm6.861-4.201c.188.168.342.379.463.633s.182.582.182.984c0 .398-.073.764-.217 1.096a2.604 2.604 0 0 1-.61.867 2.765 2.765 0 0 1-1.034.606c-.396.131-.83.197-1.303.197-.485 0-.961-.058-1.43-.173a6.72 6.72 0 0 1-1.154-.378v-1.225h.087c.332.219.723.4 1.172.545.45.145.883.217 1.301.217.246 0 .508-.041.785-.123.278-.082.502-.203.674-.363a1.71 1.71 0 0 0 .401-.569c.088-.207.132-.468.132-.785 0-.312-.05-.571-.15-.776a1.193 1.193 0 0 0-.412-.484 1.615 1.615 0 0 0-.639-.249 4.575 4.575 0 0 0-.808-.067h-.528v-.973h.41c.594 0 1.068-.124 1.421-.372.354-.248.53-.61.53-1.087 0-.21-.044-.395-.134-.553a1.1 1.1 0 0 0-.375-.39 1.686 1.686 0 0 0-.54-.211 3.27 3.27 0 0 0-.65-.059c-.37 0-.765.067-1.183.2-.418.132-.813.32-1.184.562h-.058v-1.224c.277-.137.647-.263 1.11-.378a5.56 5.56 0 0 1 1.345-.173c.425 0 .8.039 1.125.117.324.078.617.203.879.375.28.187.494.414.638.68.145.265.217.576.217.931 0 .485-.17.907-.513 1.269a2.246 2.246 0 0 1-1.21.682v.082c.188.032.403.097.645.197s.447.223.615.372zm4.43 4.201h-1.4v-1.67h1.4V64zm8.332 0h-5.906v-1.225c.41-.351.82-.703 1.233-1.054a22.93 22.93 0 0 0 1.151-1.05c.75-.726 1.264-1.303 1.541-1.73a2.5 2.5 0 0 0 .416-1.386c0-.453-.15-.808-.448-1.064-.299-.256-.716-.384-1.25-.384-.356 0-.741.063-1.155.188a4.697 4.697 0 0 0-1.213.574h-.059v-1.23c.278-.137.648-.262 1.11-.375a5.65 5.65 0 0 1 1.345-.17c.895 0 1.596.216 2.104.647.508.432.762 1.017.762 1.755 0 .332-.042.642-.126.929-.084.287-.208.56-.372.817-.153.242-.331.48-.537.715-.205.234-.454.494-.747.78-.418.41-.85.807-1.295 1.192-.445.384-.86.74-1.248 1.069h4.694V64z" fill="#181818"/></g></svg>