<svg width="100" height="86" xmlns="http://www.w3.org/2000/svg"><g transform="translate(21 1)" fill="none" fill-rule="evenodd"><rect fill="#FFF" fill-rule="nonzero" x="2" y="2" width="53.333" height="80" rx="4"/><path d="M4.722 3.185c-.851 0-1.537.671-1.537 1.504v75.807c0 .833.686 1.504 1.537 1.504h49.8c.852 0 1.537-.67 1.537-1.504V4.689c0-.833-.685-1.504-1.537-1.504h-49.8zm16.066 27.563h17.668c.699 0 1.446.523 1.674 1.17l.843 2.395 1.75 4.965c.002.004 0 .009.002.013l.41 1.154c.998 0 1.802.785 1.802 1.762v7.054c0 .977-.804 1.764-1.802 1.764H16.11c-.998 0-1.802-.787-1.802-1.764v-7.054c0-.977.804-1.762 1.802-1.762l.409-1.154c.002-.004 0-.009.002-.013l1.75-4.965.844-2.396c.227-.646.974-1.17 1.673-1.17zm.55 1.763c-.35 0-.724.262-.838.585l-2.588 7.35h23.42l-2.59-7.35c-.113-.323-.486-.585-.835-.585H21.338zM40.43 42.12c-1.492 0-2.7 1.185-2.7 2.645s1.208 2.645 2.7 2.645c1.493 0 2.704-1.184 2.704-2.645 0-1.46-1.211-2.645-2.704-2.645zm-21.618.088c-1.493 0-2.703 1.185-2.703 2.646 0 1.46 1.21 2.645 2.703 2.645 1.493 0 2.701-1.185 2.701-2.645 0-1.461-1.208-2.646-2.701-2.646zm-2.703 9.698h5.404v3.525c0 1.46-1.208 2.645-2.701 2.645s-2.703-1.184-2.703-2.645v-3.525zm21.62 0h5.405v3.525c0 1.46-1.211 2.645-2.704 2.645-1.492 0-2.7-1.184-2.7-2.645v-3.525z" fill="#0D69E1" fill-rule="nonzero"/><rect stroke="#000" x=".5" y=".5" width="58" height="84" rx="4"/></g></svg>