<svg width="100" height="86" xmlns="http://www.w3.org/2000/svg"><g transform="translate(21 1)" fill="none" fill-rule="evenodd"><rect fill="#FFF" fill-rule="nonzero" x="2" y="2" width="53.333" height="80" rx="4"/><path d="M4.54 3C3.69 3 3 3.675 3 4.508v75.984C3 81.325 3.69 82 4.54 82h49.92c.85 0 1.54-.675 1.54-1.508V4.508C56 3.675 55.31 3 54.46 3H4.54zm16.105 27.627h17.71c.7 0 1.45.525 1.678 1.173l.845 2.4 1.755 4.978.001.013.41 1.157c1.001 0 1.807.787 1.807 1.766v7.07c0 .98-.806 1.768-1.806 1.768h-27.09c-1 0-1.806-.788-1.806-1.768v-7.07c0-.98.806-1.766 1.806-1.766l.41-1.157c.002-.005 0-.009.002-.013l1.755-4.978.845-2.4c.229-.648.977-1.173 1.678-1.173zm.55 1.768c-.35 0-.725.262-.839.586l-2.594 7.367h23.476l-2.596-7.367c-.114-.324-.487-.586-.838-.586H21.196zm19.14 9.63c-1.496 0-2.708 1.188-2.708 2.652 0 1.464 1.212 2.651 2.708 2.651 1.496 0 2.71-1.187 2.71-2.651 0-1.464-1.214-2.652-2.71-2.652zm-21.67.089c-1.496 0-2.71 1.187-2.71 2.651 0 1.464 1.214 2.652 2.71 2.652s2.708-1.188 2.708-2.652c0-1.464-1.212-2.651-2.708-2.651zm-2.71 9.72h5.418v3.534c0 1.464-1.212 2.651-2.708 2.651-1.496 0-2.71-1.187-2.71-2.651v-3.534zm21.672 0h5.418v3.534c0 1.464-1.214 2.651-2.71 2.651s-2.708-1.187-2.708-2.651v-3.534z" fill="#0D69E1" fill-rule="nonzero"/><path d="M50.3 3L3 76.422v4.07C3 81.325 3.69 82 4.54 82H8.7L56 8.578v-4.07C56 3.675 55.31 3 54.46 3H50.3z" fill="red" fill-rule="nonzero"/><rect stroke="#000" x=".5" y=".5" width="58" height="84" rx="4"/></g></svg>