<svg width="285" height="64" xmlns="http://www.w3.org/2000/svg"><g fill="none" fill-rule="evenodd"><path d="M4 1.533h130a4 4 0 0 1 4 4V42a4 4 0 0 1-4 4H4a4 4 0 0 1-4-4V5.533a4 4 0 0 1 4-4z" fill="#FFF" fill-rule="nonzero"/><path d="M6 1.367a5.5 5.5 0 0 0-5.5 5.5V41A5.5 5.5 0 0 0 6 46.5h126a5.5 5.5 0 0 0 5.5-5.5V6.867a5.5 5.5 0 0 0-5.5-5.5H6z" stroke="#000"/><path d="M6.267 4C4.457 4 3 5.439 3 7.226v12.39l104.881-.132V12.71L127.321 24l-19.44 11.29v-6.774L3 28.65v12.125C3 42.561 4.457 44 6.267 44h125.466c1.81 0 3.267-1.439 3.267-3.226V7.226C135 5.439 133.543 4 131.733 4H6.267z" fill="#0D69E1" fill-rule="nonzero"/><path d="M281 1.533H151a4 4 0 0 0-4 4V42a4 4 0 0 0 4 4h130a4 4 0 0 0 4-4V5.533a4 4 0 0 0-4-4z" fill="#FFF" fill-rule="nonzero"/><path d="M279 1.367a5.5 5.5 0 0 1 5.5 5.5V41a5.5 5.5 0 0 1-5.5 5.5H153a5.5 5.5 0 0 1-5.5-5.5V6.867a5.5 5.5 0 0 1 5.5-5.5h126z" stroke="#000"/><path d="M278.733 4C280.543 4 282 5.439 282 7.226v12.39l-104.881-.132V12.71L157.679 24l19.44 11.29v-6.774L282 28.65v12.125c0 1.787-1.457 3.226-3.267 3.226H153.267c-1.81 0-3.267-1.439-3.267-3.226V7.226C150 5.439 151.457 4 153.267 4h125.466z" fill="#0D69E1" fill-rule="nonzero"/><path d="M59.636 61.026c0 .409-.073.8-.22 1.174a2.73 2.73 0 0 1-.605.944 2.848 2.848 0 0 1-.996.635c-.386.147-.832.221-1.34.221-.472 0-.927-.05-1.365-.15a5.567 5.567 0 0 1-1.11-.363V62.24h.081c.318.205.69.379 1.116.523.426.143.844.215 1.255.215.275 0 .541-.04.799-.118a1.649 1.649 0 0 0 1.075-1.021c.087-.236.13-.51.13-.82 0-.303-.05-.559-.153-.768a1.29 1.29 0 0 0-.427-.501 1.862 1.862 0 0 0-.735-.316 4.693 4.693 0 0 0-.968-.091c-.34 0-.67.023-.985.07a15.27 15.27 0 0 0-.816.142V55.03h5.206v1.032h-4.085V58.4a10.443 10.443 0 0 1 .965-.047c.469 0 .88.04 1.232.121.352.08.676.223.97.428.31.216.55.496.72.838.17.342.256.771.256 1.287zm3.701 2.791H61.95v-1.682h1.388v1.682zm8.286-7.471l-3.916 7.471h-1.244l4.167-7.755h-4.928V55.03h5.921v1.316zm3.608 7.471h-1.388v-1.682h1.388v1.682zm7.769 0h-4.683v-.897h1.801v-5.89h-1.801v-.802c.244 0 .505-.021.784-.062.28-.042.49-.102.634-.18.178-.099.318-.224.42-.375.103-.152.163-.355.178-.611h.9v7.92H83v.897zM206.733 61.075c0 .403-.075.788-.225 1.155-.15.368-.354.677-.614.929-.284.27-.622.478-1.014.623-.392.145-.846.218-1.362.218-.481 0-.944-.05-1.39-.148a5.8 5.8 0 0 1-1.128-.357v-1.224h.083c.323.201.701.372 1.134.513.434.142.86.212 1.277.212.28 0 .55-.039.813-.116.262-.077.495-.213.7-.406.173-.166.304-.366.393-.598.089-.232.133-.5.133-.806 0-.298-.052-.55-.157-.755a1.281 1.281 0 0 0-.434-.493 1.927 1.927 0 0 0-.748-.31 4.933 4.933 0 0 0-.984-.09c-.346 0-.68.023-1.001.07a16.02 16.02 0 0 0-.83.139V55.18h5.295v1.015h-4.155v2.298a10.984 10.984 0 0 1 .981-.046c.477 0 .894.04 1.253.119.359.08.688.22.987.42.315.213.56.488.733.824.173.337.26.759.26 1.265zm3.765 2.745h-1.413v-1.654h1.413v1.654zm8.428-7.346l-3.984 7.346h-1.265l4.238-7.625h-5.012V55.18h6.023v1.294zm3.67 7.346h-1.413v-1.654h1.413v1.654zm8.404 0h-5.957v-1.213c.413-.348.828-.696 1.244-1.044.415-.348.802-.695 1.161-1.039.756-.72 1.275-1.29 1.554-1.715.28-.423.42-.88.42-1.372 0-.449-.15-.8-.452-1.053-.302-.253-.722-.38-1.262-.38-.359 0-.747.062-1.164.186a4.777 4.777 0 0 0-1.224.568h-.059V55.54c.28-.136.653-.26 1.12-.372a5.8 5.8 0 0 1 1.357-.168c.902 0 1.61.214 2.121.641.513.428.769 1.007.769 1.738 0 .329-.043.636-.127.92a3.12 3.12 0 0 1-.376.81c-.153.24-.334.475-.54.707-.207.232-.459.49-.754.772-.422.406-.857.8-1.306 1.18-.45.382-.869.735-1.259 1.06H231v.992z" fill="#181818"/></g></svg>