<svg width="223" height="159" xmlns="http://www.w3.org/2000/svg"><g fill="none" fill-rule="evenodd"><g transform="translate(2 2)"><path d="M7.022.723h89.956a6.3 6.3 0 0 1 6.3 6.3v123.954a6.3 6.3 0 0 1-6.3 6.3H7.022a6.3 6.3 0 0 1-6.3-6.3V7.023a6.3 6.3 0 0 1 6.3-6.3z" fill="#FFF" fill-rule="nonzero"/><rect fill="#FC0" fill-rule="nonzero" x="2.167" y="2.168" width="99.667" height="133.665" rx="3.5"/><rect stroke="#000" x=".5" y=".5" width="103" height="137" rx="6.16"/><path d="M4.524 2.168A2.355 2.355 0 0 0 2.167 4.53v128.94a2.355 2.355 0 0 0 2.357 2.362h94.952a2.355 2.355 0 0 0 2.357-2.362V4.53a2.355 2.355 0 0 0-2.357-2.362H4.524zm0 .675h13.805v70.376h-7.014L22.538 92.72l11.223-19.5h-7.014V2.842h18.239v37.466a3.364 3.364 0 0 0 3.367 3.376h7.294a3.364 3.364 0 0 0 3.367-3.376V2.843h40.462c.933 0 1.684.752 1.684 1.687v128.94c0 .935-.751 1.687-1.684 1.687H81.462v-38.03c0-4.103-1.626-8.037-4.52-10.938l-22.42-22.474 4.96-4.972-21.693-5.835 5.82 21.746 4.96-4.973 22.42 22.476a7.037 7.037 0 0 1 2.055 4.97v38.03h-14.03V97.691a3.364 3.364 0 0 0-3.367-3.376h-7.294a3.364 3.364 0 0 0-3.367 3.376v37.466H4.524a1.682 1.682 0 0 1-1.684-1.687V4.53c0-.935.751-1.687 1.684-1.687z" fill="#000" fill-rule="nonzero"/><path d="M80.086 18.354c-9.307 0-16.851 7.54-16.851 16.842 0 9.301 7.544 16.842 16.851 16.842 9.307 0 16.852-7.54 16.852-16.842 0-9.301-7.545-16.842-16.852-16.842zm0 2.848c7.734 0 14.003 6.265 14.003 13.994S87.82 49.19 80.086 49.19c-7.733 0-14.002-6.265-14.002-13.994s6.269-13.994 14.002-13.994z" fill="red" fill-rule="nonzero"/><path d="M94.09 35.196c0 7.729-6.27 13.994-14.004 13.994-7.733 0-14.002-6.265-14.002-13.994s6.269-13.994 14.002-13.994c7.734 0 14.003 6.265 14.003 13.994z" fill="#FFF" fill-rule="nonzero"/></g><g transform="translate(116 1)"><path d="M7.3 1h90.4a6.3 6.3 0 0 1 6.3 6.3v123.4a6.3 6.3 0 0 1-6.3 6.3H7.3a6.3 6.3 0 0 1-6.3-6.3V7.3A6.3 6.3 0 0 1 7.3 1z" fill="#FFF" fill-rule="nonzero"/><rect fill="#FC0" fill-rule="nonzero" x="4" y="3" width="98" height="132.267" rx="3"/><rect stroke="#000" x=".5" y=".5" width="104" height="137" rx="6.16"/><path d="M5.667 3a2.33 2.33 0 0 0-2.334 2.338v127.59a2.33 2.33 0 0 0 2.334 2.339h94a2.33 2.33 0 0 0 2.333-2.338V5.338A2.33 2.33 0 0 0 99.667 3h-94zm0 .668h49.777v37.075a3.33 3.33 0 0 0 3.333 3.34H66a3.33 3.33 0 0 0 3.333-3.34V3.668h30.334c.923 0 1.666.745 1.666 1.67v127.59c0 .926-.743 1.67-1.666 1.67H69.333V97.525A3.33 3.33 0 0 0 66 94.184h-7.223a3.33 3.33 0 0 0-3.333 3.34v37.075h-12.5V94.184c0-1.846.733-3.613 2.035-4.918L64.425 69.78l4.91 4.92 5.763-21.519-21.477 5.773 4.912 4.92L39.085 83.36a15.322 15.322 0 0 0-4.475 10.824v40.415H5.667A1.665 1.665 0 0 1 4 132.929V5.338c0-.925.743-1.67 1.667-1.67z" fill="#000" fill-rule="nonzero"/><path d="M29.778 19.133c-8.975 0-16.25 7.268-16.25 16.234 0 8.965 7.275 16.233 16.25 16.233 8.974 0 16.25-7.268 16.25-16.233 0-8.966-7.276-16.234-16.25-16.234zM18.348 32h22.86c.31 0 .561.251.561.562v5.61c0 .31-.25.561-.562.561H18.348a.561.561 0 0 1-.562-.562v-5.609c0-.31.251-.562.562-.562z" fill="red" fill-rule="nonzero"/><path fill="#FFF" fill-rule="nonzero" d="M17.786 32h23.983v6.733H17.786z"/></g><path d="M40.979 154.17c0 .887-.292 1.61-.876 2.17-.584.561-1.3.842-2.148.842-.43 0-.82-.067-1.172-.2a2.686 2.686 0 0 1-.931-.591c-.336-.325-.595-.754-.777-1.29-.181-.535-.272-1.18-.272-1.933 0-.773.083-1.459.249-2.057.166-.597.43-1.129.794-1.593a3.492 3.492 0 0 1 1.33-1.035c.543-.248 1.176-.372 1.898-.372.23 0 .424.01.58.03.157.02.315.054.475.105v1.12h-.059a2.172 2.172 0 0 0-.495-.168 2.902 2.902 0 0 0-.677-.079c-.84 0-1.51.263-2.01.788-.5.526-.79 1.236-.872 2.13.328-.2.651-.35.97-.454a3.574 3.574 0 0 1 1.104-.155c.37 0 .698.034.981.102.283.069.574.206.87.413.344.239.603.54.777.903.174.363.26.804.26 1.324zm-1.19.047c0-.363-.054-.664-.161-.903a1.547 1.547 0 0 0-.53-.62 1.494 1.494 0 0 0-.598-.247 3.895 3.895 0 0 0-1.611.059c-.285.078-.578.2-.88.363a5.961 5.961 0 0 0-.023.55c0 .618.064 1.105.19 1.463.128.357.303.64.525.847.18.171.374.297.583.377.21.08.437.12.683.12.566 0 1.012-.172 1.336-.518.324-.346.486-.843.486-1.491zM44.512 157h-1.4v-1.67h1.4V157zm7.834 0h-4.723v-.89h1.816v-5.848h-1.816v-.797c.246 0 .51-.02.791-.062.281-.04.494-.1.639-.178.18-.098.321-.222.425-.372.103-.15.163-.353.178-.607h.908v7.863h1.782V157zm8.115-4.887c0 .762-.087 1.453-.26 2.075-.175.62-.437 1.15-.789 1.587-.355.446-.8.79-1.336 1.032-.535.242-1.164.363-1.887.363-.203 0-.394-.01-.574-.032a2.44 2.44 0 0 1-.48-.103v-1.119h.058c.114.059.274.114.48.167.208.053.438.08.692.08.864 0 1.54-.26 2.03-.777.49-.518.775-1.232.853-2.142a4.424 4.424 0 0 1-1.025.469c-.32.094-.67.14-1.05.14a4.16 4.16 0 0 1-.975-.105 2.628 2.628 0 0 1-.876-.41 2.275 2.275 0 0 1-.776-.908c-.174-.368-.26-.807-.26-1.319 0-.89.292-1.615.878-2.173.586-.56 1.3-.838 2.145-.838a3.4 3.4 0 0 1 1.171.196c.36.13.674.327.944.589.332.324.588.741.767 1.25.18.51.27 1.17.27 1.978zm-1.184-.252c0-.605-.062-1.091-.187-1.459-.125-.367-.297-.652-.516-.855a1.682 1.682 0 0 0-.592-.378 2.004 2.004 0 0 0-.685-.114c-.563 0-1.007.175-1.333.527-.326.352-.49.846-.49 1.482 0 .372.053.674.159.909.105.234.283.44.533.615.176.121.37.202.58.243.211.041.445.062.703.062.305 0 .613-.041.926-.123a3.61 3.61 0 0 0 .879-.358 9.57 9.57 0 0 1 .015-.243 4.37 4.37 0 0 0 .008-.308zM64.135 157h-1.4v-1.67h1.4V157zm7.834 0h-4.723v-.89h1.817v-5.848h-1.817v-.797c.246 0 .51-.02.791-.062.281-.04.494-.1.639-.178.18-.098.321-.222.425-.372.103-.15.163-.353.178-.607h.909v7.863h1.78V157zM155.979 154.17c0 .887-.292 1.61-.876 2.17-.584.561-1.3.842-2.148.842-.43 0-.82-.067-1.172-.2a2.686 2.686 0 0 1-.931-.591c-.336-.325-.595-.754-.777-1.29-.181-.535-.272-1.18-.272-1.933 0-.773.083-1.459.249-2.057.166-.597.43-1.129.794-1.593a3.492 3.492 0 0 1 1.33-1.035c.543-.248 1.176-.372 1.898-.372.23 0 .424.01.58.03.157.02.315.054.475.105v1.12h-.059a2.172 2.172 0 0 0-.495-.168 2.902 2.902 0 0 0-.677-.079c-.84 0-1.51.263-2.01.788-.5.526-.79 1.236-.872 2.13.328-.2.651-.35.97-.454a3.574 3.574 0 0 1 1.104-.155c.37 0 .698.034.981.102.283.069.574.206.87.413.344.239.603.54.777.903.174.363.26.804.26 1.324zm-1.19.047c0-.363-.054-.664-.161-.903a1.547 1.547 0 0 0-.53-.62 1.494 1.494 0 0 0-.598-.247 3.895 3.895 0 0 0-1.611.059c-.285.078-.578.2-.88.363a5.96 5.96 0 0 0-.023.55c0 .618.064 1.105.19 1.463.128.357.303.64.525.847.18.171.374.297.583.377.21.08.437.12.683.12.566 0 1.012-.172 1.336-.518.324-.346.486-.843.486-1.491zm4.723 2.783h-1.4v-1.67h1.4V157zm7.834 0h-4.723v-.89h1.816v-5.848h-1.816v-.797c.246 0 .51-.02.791-.062.281-.04.494-.1.639-.178.18-.098.321-.222.425-.372.103-.15.163-.353.178-.607h.908v7.863h1.782V157zm8.115-4.887c0 .762-.087 1.453-.26 2.075-.175.62-.437 1.15-.789 1.587-.355.446-.8.79-1.336 1.032-.535.242-1.164.363-1.887.363-.203 0-.394-.01-.574-.032a2.44 2.44 0 0 1-.48-.103v-1.119h.058c.114.059.274.114.48.167.208.053.438.08.692.08.864 0 1.54-.26 2.03-.777.49-.518.775-1.232.853-2.142a4.424 4.424 0 0 1-1.025.469c-.32.094-.67.14-1.05.14a4.16 4.16 0 0 1-.975-.105 2.628 2.628 0 0 1-.876-.41 2.275 2.275 0 0 1-.776-.908c-.174-.368-.26-.807-.26-1.319 0-.89.292-1.615.878-2.173.586-.56 1.3-.838 2.145-.838a3.4 3.4 0 0 1 1.171.196c.36.13.674.327.944.589.332.324.588.741.767 1.25.18.51.27 1.17.27 1.978zm-1.184-.252c0-.605-.062-1.091-.187-1.459-.125-.367-.297-.652-.516-.855a1.682 1.682 0 0 0-.592-.378 2.004 2.004 0 0 0-.685-.114c-.563 0-1.007.175-1.333.527-.326.352-.49.846-.49 1.482 0 .372.053.674.159.909.105.234.283.44.533.615.176.121.37.202.58.243.211.041.445.062.703.062.305 0 .613-.041.926-.123a3.61 3.61 0 0 0 .879-.358 9.57 9.57 0 0 1 .015-.243 4.37 4.37 0 0 0 .008-.308zm4.858 5.139h-1.4v-1.67h1.4V157zm8.332 0h-5.906v-1.225c.41-.351.82-.703 1.233-1.054a22.93 22.93 0 0 0 1.151-1.05c.75-.726 1.264-1.303 1.541-1.73a2.5 2.5 0 0 0 .416-1.386c0-.453-.15-.808-.448-1.064-.299-.256-.716-.384-1.25-.384-.356 0-.741.063-1.155.188a4.697 4.697 0 0 0-1.213.574h-.059v-1.23c.278-.137.648-.262 1.11-.375a5.65 5.65 0 0 1 1.345-.17c.895 0 1.596.216 2.104.647.508.432.762 1.017.762 1.755 0 .332-.042.642-.126.929-.084.287-.208.56-.372.817-.153.242-.331.48-.537.715-.205.234-.454.494-.747.78-.418.41-.85.807-1.295 1.192-.445.384-.86.74-1.248 1.069h4.694V157z" fill="#181818"/></g></svg>