<svg width="115" height="534" xmlns="http://www.w3.org/2000/svg"><g fill="none" fill-rule="evenodd"><g transform="translate(7 2)"><rect stroke="#000" stroke-width="2" fill="#FFF" x="1" y="1" width="98" height="48" rx="6"/><g fill="#000" fill-rule="nonzero"><path d="M23.437 20.634l.967 1.252 2.197-1.368v12.63h2.871V16.851h-2.46zM38.822 16.647c-1.666.043-2.999.824-3.999 2.343-1 1.52-1.512 3.523-1.538 6.01.026 2.487.539 4.49 1.538 6.01 1 1.52 2.333 2.3 4 2.343 1.666-.043 2.999-.824 3.998-2.343 1-1.52 1.513-3.523 1.538-6.01-.025-2.372-.538-4.343-1.538-5.912-1-1.568-2.332-2.382-3.999-2.44zm0 2.532c.804-.012 1.446.45 1.927 1.383.48.934.727 2.413.74 4.438-.013 2.025-.26 3.504-.74 4.438-.481.934-1.123 1.395-1.927 1.383-.803.012-1.445-.45-1.926-1.383-.48-.934-.727-2.413-.74-4.438.013-2.025.26-3.504.74-4.438.481-.934 1.123-1.395 1.926-1.383zM52.468 16.647c-1.666.043-2.999.824-3.999 2.343-1 1.52-1.512 3.523-1.538 6.01.026 2.487.538 4.49 1.538 6.01 1 1.52 2.333 2.3 4 2.343 1.665-.043 2.998-.824 3.998-2.343 1-1.52 1.513-3.523 1.538-6.01-.025-2.372-.538-4.343-1.538-5.912-1-1.568-2.333-2.382-3.999-2.44zm0 2.532c.803-.012 1.446.45 1.927 1.383.48.934.727 2.413.74 4.438-.013 2.025-.26 3.504-.74 4.438-.481.934-1.124 1.395-1.927 1.383-.803.012-1.445-.45-1.926-1.383-.481-.934-.728-2.413-.74-4.438.012-2.025.259-3.504.74-4.438.48-.934 1.123-1.395 1.926-1.383zM62.292 33.148h2.46l.616-7.945 3.281 6.52 3.281-6.52.615 7.945h2.461L73.981 21.74h-2.46l-2.872 5.704-2.87-5.704h-2.462zM14.844 25h4.868L12.5 12.583 5.289 25h4.867v12.417h4.688zM89.844 25h4.868L87.5 12.583 80.289 25h4.867v12.417h4.688z"/></g></g><path d="M47.914 66.568c0 .754-.294 1.381-.882 1.881-.588.5-1.327.75-2.218.75-.945 0-1.698-.244-2.258-.732s-.841-1.113-.841-1.875c0-.485.14-.923.422-1.316.281-.392.677-.704 1.19-.934v-.035c-.47-.25-.816-.524-1.04-.82-.225-.298-.338-.669-.338-1.114 0-.656.27-1.203.809-1.64.539-.438 1.224-.657 2.056-.657.872 0 1.567.21 2.086.627.52.418.78.95.78 1.594 0 .394-.123.782-.37 1.163-.246.38-.607.679-1.083.894v.035c.546.234.964.523 1.253.867.29.344.434.781.434 1.312zm-1.389-4.26c0-.417-.16-.75-.483-.998-.322-.248-.733-.373-1.233-.373-.493 0-.896.118-1.21.352-.315.234-.472.55-.472.95 0 .28.08.524.237.729.158.205.398.387.718.548.145.07.353.162.624.275.272.113.536.207.794.281.387-.258.654-.525.803-.802.148-.278.222-.598.222-.961zm.182 4.372c0-.36-.08-.648-.237-.865-.158-.216-.468-.434-.929-.653a5.885 5.885 0 0 0-.603-.24c-.22-.074-.51-.178-.874-.31a2.306 2.306 0 0 0-.846.779 2 2 0 0 0-.32 1.113c0 .527.182.963.545 1.307.364.343.825.515 1.383.515.57 0 1.027-.146 1.368-.44.342-.292.513-.695.513-1.206zM51.512 69h-1.4v-1.67h1.4V69zm8.332 0h-5.907v-1.225l1.234-1.054a22.93 22.93 0 0 0 1.151-1.05c.75-.726 1.264-1.303 1.541-1.73a2.5 2.5 0 0 0 .416-1.386c0-.453-.15-.808-.448-1.064-.299-.256-.716-.384-1.25-.384-.356 0-.741.063-1.155.188a4.697 4.697 0 0 0-1.213.574h-.059v-1.23c.278-.137.648-.262 1.11-.375a5.65 5.65 0 0 1 1.345-.17c.895 0 1.596.216 2.104.647.508.432.762 1.017.762 1.755 0 .332-.042.642-.126.929-.084.287-.208.56-.372.817-.153.242-.331.48-.537.715-.205.234-.454.494-.747.78-.418.41-.85.807-1.295 1.192-.445.384-.86.74-1.248 1.069h4.694V69zm3.662 0h-1.4v-1.67h1.4V69zm7.834 0h-4.723v-.89h1.817v-5.848h-1.817v-.797c.246 0 .51-.02.791-.062.281-.04.494-.1.639-.178.18-.098.321-.222.425-.372.103-.15.163-.353.178-.607h.909v7.863h1.78V69zM47.914 206.568c0 .754-.294 1.381-.882 1.881-.588.5-1.327.75-2.218.75-.945 0-1.698-.244-2.258-.732s-.841-1.113-.841-1.875c0-.485.14-.923.422-1.316.281-.392.677-.704 1.19-.934v-.035c-.47-.25-.816-.524-1.04-.82-.225-.298-.338-.669-.338-1.114 0-.656.27-1.203.809-1.64.539-.438 1.224-.657 2.056-.657.872 0 1.567.21 2.086.627.52.418.78.95.78 1.594 0 .394-.123.782-.37 1.163-.246.38-.607.679-1.083.894v.035c.546.234.964.523 1.253.867.29.344.434.781.434 1.312zm-1.389-4.26c0-.417-.16-.75-.483-.998-.322-.248-.733-.373-1.233-.373-.493 0-.896.118-1.21.352-.315.234-.472.55-.472.95 0 .28.08.524.237.729.158.205.398.387.718.548.145.07.353.162.624.275.272.113.536.207.794.281.387-.258.654-.525.803-.802.148-.278.222-.598.222-.961zm.182 4.372c0-.36-.08-.648-.237-.865-.158-.216-.468-.434-.929-.653a5.885 5.885 0 0 0-.603-.24 41.62 41.62 0 0 1-.874-.31 2.306 2.306 0 0 0-.846.779 2 2 0 0 0-.32 1.113c0 .527.182.963.545 1.307.364.343.825.515 1.383.515.57 0 1.027-.146 1.368-.44.342-.292.513-.695.513-1.206zm4.805 2.32h-1.4v-1.67h1.4V209zm8.332 0h-5.907v-1.225l1.234-1.054a22.93 22.93 0 0 0 1.151-1.05c.75-.726 1.264-1.303 1.541-1.73a2.5 2.5 0 0 0 .416-1.386c0-.453-.15-.808-.448-1.064-.299-.256-.716-.384-1.25-.384-.356 0-.741.063-1.155.188a4.697 4.697 0 0 0-1.213.574h-.059v-1.23c.278-.137.648-.262 1.11-.375a5.65 5.65 0 0 1 1.345-.17c.895 0 1.596.216 2.104.647.508.432.762 1.017.762 1.755 0 .332-.042.642-.126.929-.084.287-.208.56-.372.817-.153.242-.331.48-.537.715-.205.234-.454.494-.747.78-.418.41-.85.807-1.295 1.192-.445.384-.86.74-1.248 1.069h4.694V209zm3.662 0h-1.4v-1.67h1.4V209zm8.332 0h-5.906v-1.225c.41-.351.82-.703 1.233-1.054a22.93 22.93 0 0 0 1.151-1.05c.75-.726 1.264-1.303 1.541-1.73a2.5 2.5 0 0 0 .416-1.386c0-.453-.149-.808-.448-1.064-.299-.256-.716-.384-1.25-.384-.356 0-.741.063-1.155.188a4.697 4.697 0 0 0-1.213.574h-.059v-1.23c.278-.137.648-.262 1.11-.375a5.65 5.65 0 0 1 1.346-.17c.894 0 1.595.216 2.103.647.508.432.762 1.017.762 1.755 0 .332-.042.642-.126.929-.084.287-.208.56-.372.817-.153.242-.331.48-.536.715-.206.234-.455.494-.748.78-.417.41-.85.807-1.294 1.192-.446.384-.862.74-1.248 1.069h4.693V209zM47.914 436.568c0 .754-.294 1.381-.882 1.881-.588.5-1.327.75-2.218.75-.945 0-1.698-.244-2.258-.732s-.841-1.113-.841-1.875c0-.485.14-.923.422-1.316.281-.392.677-.704 1.19-.934v-.035c-.47-.25-.816-.524-1.04-.82-.225-.298-.338-.669-.338-1.114 0-.656.27-1.203.809-1.64.539-.438 1.224-.657 2.056-.657.872 0 1.567.21 2.086.627.52.418.78.95.78 1.594 0 .394-.123.782-.37 1.163-.246.38-.607.679-1.083.894v.035c.546.234.964.523 1.253.867.29.344.434.781.434 1.312zm-1.389-4.26c0-.417-.16-.75-.483-.998-.322-.248-.733-.373-1.233-.373-.493 0-.896.118-1.21.352-.315.234-.472.55-.472.95 0 .28.08.524.237.729.158.205.398.387.718.548.145.07.353.162.624.275.272.113.536.207.794.281.387-.258.654-.525.803-.802.148-.278.222-.598.222-.961zm.182 4.372c0-.36-.08-.648-.237-.865-.158-.216-.468-.434-.929-.653a5.885 5.885 0 0 0-.603-.24 41.62 41.62 0 0 1-.874-.31 2.306 2.306 0 0 0-.846.779 2 2 0 0 0-.32 1.113c0 .527.182.963.545 1.307.364.343.825.515 1.383.515.57 0 1.027-.146 1.368-.44.342-.292.513-.695.513-1.206zm4.805 2.32h-1.4v-1.67h1.4V439zm8.332 0h-5.907v-1.225l1.234-1.054a22.93 22.93 0 0 0 1.151-1.05c.75-.726 1.264-1.303 1.541-1.73a2.5 2.5 0 0 0 .416-1.386c0-.453-.15-.808-.448-1.064-.299-.256-.716-.384-1.25-.384-.356 0-.741.063-1.155.188a4.697 4.697 0 0 0-1.213.574h-.059v-1.23c.278-.137.648-.262 1.11-.375a5.65 5.65 0 0 1 1.345-.17c.895 0 1.596.216 2.104.647.508.432.762 1.017.762 1.755 0 .332-.042.642-.126.929-.084.287-.208.56-.372.817-.153.242-.331.48-.537.715-.205.234-.454.494-.747.78-.418.41-.85.807-1.295 1.192-.445.384-.86.74-1.248 1.069h4.694V439zm3.662 0h-1.4v-1.67h1.4V439zm8.262-2.771c0 .406-.075.794-.223 1.166a2.706 2.706 0 0 1-.61.937 2.878 2.878 0 0 1-1.004.63c-.389.146-.84.22-1.35.22-.477 0-.936-.05-1.378-.15-.441-.1-.814-.22-1.119-.36v-1.236h.082c.32.203.695.376 1.125.518.43.143.852.214 1.266.214.277 0 .546-.04.805-.117.26-.078.492-.215.695-.41.172-.168.301-.37.39-.604.087-.234.131-.506.131-.814 0-.301-.052-.555-.155-.762a1.286 1.286 0 0 0-.43-.498 1.892 1.892 0 0 0-.742-.314 4.805 4.805 0 0 0-.976-.09c-.343 0-.674.023-.993.07-.318.047-.593.094-.823.14v-4.494h5.25v1.026h-4.12v2.32a10.694 10.694 0 0 1 .974-.047c.472 0 .886.04 1.242.12.355.08.681.222.978.425.313.215.555.492.727.832.172.34.258.766.258 1.278zM47.914 526.568c0 .754-.294 1.381-.882 1.881-.588.5-1.327.75-2.218.75-.945 0-1.698-.244-2.258-.732s-.841-1.113-.841-1.875c0-.485.14-.923.422-1.316.281-.392.677-.704 1.19-.934v-.035c-.47-.25-.816-.524-1.04-.82-.225-.298-.338-.669-.338-1.114 0-.656.27-1.203.809-1.64.539-.438 1.224-.657 2.056-.657.872 0 1.567.21 2.086.627.52.418.78.95.78 1.594 0 .394-.123.782-.37 1.163-.246.38-.607.679-1.083.894v.035c.546.234.964.523 1.253.867.29.344.434.781.434 1.312zm-1.389-4.26c0-.417-.16-.75-.483-.998-.322-.248-.733-.372-1.233-.372-.493 0-.896.117-1.21.351-.315.234-.472.55-.472.95 0 .28.08.524.237.729.158.205.398.387.718.548.145.07.353.162.624.275.272.113.536.207.794.281.387-.258.654-.525.803-.802.148-.278.222-.598.222-.961zm.182 4.372c0-.36-.08-.648-.237-.865-.158-.216-.468-.434-.929-.653a5.885 5.885 0 0 0-.603-.24 41.62 41.62 0 0 1-.874-.31 2.306 2.306 0 0 0-.846.779 2 2 0 0 0-.32 1.113c0 .527.182.963.545 1.307.364.343.825.515 1.383.515.57 0 1.027-.146 1.368-.44.342-.292.513-.695.513-1.206zm4.805 2.32h-1.4v-1.67h1.4V529zm8.332 0h-5.907v-1.225l1.234-1.054a22.93 22.93 0 0 0 1.151-1.05c.75-.726 1.264-1.303 1.541-1.73a2.5 2.5 0 0 0 .416-1.386c0-.453-.15-.808-.448-1.064-.299-.256-.716-.384-1.25-.384-.356 0-.741.063-1.155.188a4.697 4.697 0 0 0-1.213.574h-.059v-1.23c.278-.137.648-.262 1.11-.375a5.65 5.65 0 0 1 1.345-.17c.895 0 1.596.216 2.104.647.508.432.762 1.017.762 1.755 0 .332-.042.642-.126.929-.084.287-.208.56-.372.817-.153.242-.331.48-.537.715-.205.234-.454.494-.747.78-.418.41-.85.807-1.295 1.192-.445.384-.86.74-1.248 1.069h4.694V529zm3.662 0h-1.4v-1.67h1.4V529zm8.46-2.83c0 .887-.291 1.61-.875 2.17-.584.561-1.3.842-2.148.842-.43 0-.82-.067-1.172-.2a2.686 2.686 0 0 1-.931-.591c-.336-.325-.595-.754-.777-1.29-.181-.535-.272-1.18-.272-1.933 0-.773.083-1.459.249-2.057.166-.597.43-1.129.794-1.593a3.492 3.492 0 0 1 1.33-1.035c.543-.248 1.176-.372 1.898-.372.231 0 .424.01.58.03.157.02.315.054.475.105v1.12h-.058a2.172 2.172 0 0 0-.496-.168 2.902 2.902 0 0 0-.676-.079c-.84 0-1.51.263-2.01.788-.5.526-.791 1.236-.873 2.13.328-.2.651-.35.97-.454a3.574 3.574 0 0 1 1.104-.155c.371 0 .698.034.982.102.283.069.573.206.87.413.343.239.602.54.776.903.174.363.26.804.26 1.324zm-1.189.047c0-.363-.053-.664-.16-.903a1.547 1.547 0 0 0-.531-.62 1.494 1.494 0 0 0-.598-.247 3.895 3.895 0 0 0-1.611.059c-.285.078-.578.2-.879.363a5.961 5.961 0 0 0-.023.55c0 .618.063 1.105.19 1.463.127.357.302.64.524.847.18.171.374.297.583.377.21.08.437.12.683.12.566 0 1.012-.172 1.336-.518.324-.346.486-.843.486-1.491zM17.914 346.568c0 .754-.294 1.381-.882 1.881-.588.5-1.327.75-2.218.75-.945 0-1.698-.244-2.258-.732s-.841-1.113-.841-1.875c0-.485.14-.923.422-1.316.281-.392.677-.704 1.19-.934v-.035c-.47-.25-.816-.524-1.04-.82-.225-.298-.338-.669-.338-1.114 0-.656.27-1.203.809-1.64.539-.438 1.224-.657 2.056-.657.872 0 1.567.21 2.086.627.52.418.78.95.78 1.594 0 .394-.123.782-.37 1.163-.246.38-.607.679-1.083.894v.035c.546.234.964.523 1.253.867.29.344.434.781.434 1.312zm-1.389-4.26c0-.417-.16-.75-.483-.998-.322-.248-.733-.373-1.233-.373-.493 0-.896.118-1.21.352-.315.234-.472.55-.472.95 0 .28.08.524.237.729.158.205.398.387.718.548.145.07.353.162.624.275.272.113.536.207.794.281.387-.258.654-.525.803-.802.148-.278.222-.598.222-.961zm.182 4.372c0-.36-.08-.648-.237-.865-.158-.216-.468-.434-.929-.653a5.885 5.885 0 0 0-.604-.24 41.62 41.62 0 0 1-.873-.31 2.306 2.306 0 0 0-.846.779 2 2 0 0 0-.32 1.113c0 .527.182.963.545 1.307.364.343.825.515 1.383.515.57 0 1.027-.146 1.368-.44.342-.292.513-.695.513-1.206zm4.805 2.32h-1.4v-1.67h1.4V349zm8.332 0h-5.907v-1.225l1.234-1.054a22.93 22.93 0 0 0 1.151-1.05c.75-.726 1.264-1.303 1.541-1.73a2.5 2.5 0 0 0 .416-1.386c0-.453-.15-.808-.448-1.064-.299-.256-.716-.384-1.25-.384-.356 0-.741.063-1.155.188a4.697 4.697 0 0 0-1.213.574h-.059v-1.23c.278-.137.648-.262 1.11-.375a5.65 5.65 0 0 1 1.345-.17c.895 0 1.596.216 2.104.647.508.432.762 1.017.762 1.755 0 .332-.042.642-.126.929-.084.287-.208.56-.372.817-.153.242-.331.48-.537.715-.205.234-.454.494-.747.78-.418.41-.85.807-1.295 1.192-.445.384-.86.74-1.248 1.069h4.694V349zm3.662 0h-1.4v-1.67h1.4V349zm7.564-4.201c.188.168.342.379.463.633s.182.582.182.984c0 .398-.072.764-.217 1.096a2.604 2.604 0 0 1-.61.867 2.765 2.765 0 0 1-1.034.606c-.396.131-.83.197-1.303.197-.485 0-.961-.058-1.43-.173a6.72 6.72 0 0 1-1.154-.378v-1.225h.088c.332.219.722.4 1.172.545.449.145.882.217 1.3.217.246 0 .508-.041.785-.123.278-.082.502-.203.674-.363a1.71 1.71 0 0 0 .402-.569c.088-.207.132-.468.132-.785 0-.312-.05-.571-.15-.776a1.193 1.193 0 0 0-.413-.484 1.615 1.615 0 0 0-.639-.249 4.575 4.575 0 0 0-.808-.067h-.528v-.973h.41c.594 0 1.068-.124 1.421-.372.354-.248.53-.61.53-1.087 0-.21-.044-.395-.134-.553a1.1 1.1 0 0 0-.375-.39 1.686 1.686 0 0 0-.54-.211 3.27 3.27 0 0 0-.65-.059c-.37 0-.765.067-1.183.2-.418.132-.813.32-1.184.562h-.058v-1.224c.277-.137.647-.263 1.11-.378a5.56 5.56 0 0 1 1.345-.173c.426 0 .8.039 1.125.117.324.078.617.203.879.375.281.187.494.414.638.68.145.265.217.576.217.931 0 .485-.17.907-.512 1.269a2.247 2.247 0 0 1-1.21.682v.082c.187.032.402.097.644.197s.447.223.615.372zM77.914 346.568c0 .754-.294 1.381-.882 1.881-.588.5-1.327.75-2.218.75-.945 0-1.698-.244-2.258-.732s-.841-1.113-.841-1.875c0-.485.14-.923.422-1.316.281-.392.677-.704 1.19-.934v-.035c-.47-.25-.816-.524-1.04-.82-.225-.298-.338-.669-.338-1.114 0-.656.27-1.203.809-1.64.539-.438 1.224-.657 2.056-.657.872 0 1.567.21 2.086.627.52.418.78.95.78 1.594 0 .394-.123.782-.37 1.163-.246.38-.607.679-1.083.894v.035c.546.234.964.523 1.253.867.29.344.434.781.434 1.312zm-1.389-4.26c0-.417-.16-.75-.483-.998-.322-.248-.733-.373-1.233-.373-.493 0-.896.118-1.21.352-.315.234-.472.55-.472.95 0 .28.08.524.237.729.158.205.398.387.718.548.145.07.353.162.624.275.272.113.536.207.794.281.387-.258.654-.525.803-.802.148-.278.222-.598.222-.961zm.182 4.372c0-.36-.08-.648-.237-.865-.158-.216-.468-.434-.929-.653a5.885 5.885 0 0 0-.603-.24 41.62 41.62 0 0 1-.874-.31 2.306 2.306 0 0 0-.846.779 2 2 0 0 0-.32 1.113c0 .527.182.963.545 1.307.364.343.825.515 1.383.515.57 0 1.027-.146 1.368-.44.342-.292.513-.695.513-1.206zm4.805 2.32h-1.4v-1.67h1.4V349zm8.332 0h-5.906v-1.225c.41-.351.82-.703 1.233-1.054a22.93 22.93 0 0 0 1.151-1.05c.75-.726 1.264-1.303 1.541-1.73a2.5 2.5 0 0 0 .416-1.386c0-.453-.15-.808-.448-1.064-.299-.256-.716-.384-1.25-.384-.356 0-.741.063-1.155.188a4.697 4.697 0 0 0-1.213.574h-.059v-1.23c.278-.137.648-.262 1.11-.375a5.65 5.65 0 0 1 1.345-.17c.895 0 1.596.216 2.104.647.508.432.762 1.017.762 1.755 0 .332-.042.642-.126.929-.084.287-.208.56-.372.817-.153.242-.331.48-.537.715-.205.234-.454.494-.747.78-.418.41-.85.807-1.295 1.192-.445.384-.86.74-1.248 1.069h4.694V349zm3.662 0h-1.4v-1.67h1.4V349zm8.531-2.455h-1.295V349h-1.125v-2.455H95.44v-1.348l4.225-4.922h1.078v5.332h1.295v.938zm-2.42-.938v-3.937l-3.38 3.937h3.38z" fill="#181818"/><g transform="translate(32 92)"><rect stroke="#000" stroke-width="2" fill="#FFF" x="1" y="1" width="48" height="98" rx="6"/><g fill="#000" fill-rule="nonzero"><path d="M13.162 56.613l1.05 1.363 2.386-1.49v13.76h3.117V52.49h-2.672zM30.576 52.27c-1.81.046-3.257.897-4.342 2.552-1.085 1.655-1.642 3.837-1.67 6.546.028 2.71.585 4.892 1.67 6.547 1.085 1.655 2.533 2.506 4.342 2.552 1.809-.046 3.256-.897 4.342-2.552 1.085-1.655 1.642-3.837 1.67-6.547-.028-2.584-.585-4.73-1.67-6.44-1.086-1.708-2.533-2.594-4.342-2.658zm0 2.758c.872-.013 1.569.489 2.091 1.506.522 1.017.79 2.628.803 4.834-.013 2.206-.28 3.818-.803 4.835-.522 1.017-1.22 1.519-2.091 1.506-.872.013-1.57-.489-2.092-1.506s-.79-2.629-.803-4.835c.013-2.206.281-3.817.803-4.834.523-1.017 1.22-1.52 2.092-1.506zM21.875 21.968h-4.687L25 8.471l7.813 13.497h-4.688v18.688h-6.25z"/><g><path d="M18.098 90.49h2.672l.668-8.655L25 88.937l3.563-7.102.667 8.655h2.672l-1.113-12.427h-2.672L25 84.276l-3.117-6.213h-2.672z"/></g></g></g><g transform="translate(2 232)"><rect stroke="#000" stroke-width="2" fill="#FFF" x="1" y="1" width="48" height="98" rx="6"/><g fill-rule="nonzero"><path fill="#000" d="M20.312 67.13h-9.375L25 91.424 39.062 67.13h-9.375V1.645h-9.375z"/><path d="M1.667 7.641A5.81 5.81 0 0 1 7.5 1.827h12.812V67.13h-9.375L25 91.424 39.062 67.13h-9.375V1.827H42.5a5.81 5.81 0 0 1 5.833 5.814V92.36a5.81 5.81 0 0 1-5.833 5.814h-35a5.81 5.81 0 0 1-5.833-5.814V7.64z" fill="#FFF"/></g></g><rect x="1" y="1" width="48" height="98" rx="6" fill="#FFF" stroke="#000" stroke-width="2" transform="translate(62 232)"/><path d="M82.312 299.13h-9.375L87 323.424l14.062-24.294h-9.375v-34.26h9.375L87 240.574 72.937 264.87h9.375z" fill="#000" fill-rule="nonzero"/><rect x="1" y="1" width="98" height="48" rx="6" fill="#FFF" stroke="#000" stroke-width="2" transform="translate(7 372)"/><g fill="#000" fill-rule="nonzero"><path d="M14.266 389.87l1.084 2.415c.561-.49 1.108-.847 1.64-1.07.532-.221 1.197-.33 1.992-.327a2.202 2.202 0 0 1 1.41.535c.406.344.62.777.641 1.299-.025.637-.384 1.248-1.076 1.833-.693.586-1.564.994-2.615 1.223v2.24a2 2 0 0 1 .685-.178c.248-.02.498-.03.75-.025 1.288.056 2.104.366 2.45.931.346.565.497 1.05.45 1.455-.043.94-.402 1.628-1.076 2.063-.674.435-1.487.65-2.439.644-.7.004-1.432-.063-2.197-.2-.766-.138-1.41-.372-1.934-.702l.352 2.852c.072.029.565.145 1.48.349.914.204 1.817.32 2.71.35 1.955-.069 3.448-.646 4.478-1.732 1.03-1.087 1.548-2.275 1.556-3.565-.03-.88-.298-1.61-.805-2.189a5.474 5.474 0 0 0-1.69-1.328c-.62-.306-1.117-.492-1.489-.558.855-.119 1.606-.543 2.256-1.273.65-.73.991-1.664 1.025-2.801-.055-1.135-.53-2.03-1.428-2.689-.897-.657-1.886-.993-2.966-1.007-.872.022-1.823.188-2.853.498-1.03.31-1.827.629-2.391.957zM32.749 388.647c-1.667.043-3 .824-4 2.343-1 1.52-1.512 3.523-1.537 6.01.025 2.487.538 4.49 1.538 6.01 1 1.52 2.332 2.3 3.999 2.343 1.666-.043 2.999-.824 3.999-2.343 1-1.52 1.512-3.523 1.538-6.01-.026-2.372-.539-4.343-1.538-5.912-1-1.568-2.333-2.382-4-2.44zm0 2.532c.803-.012 1.445.45 1.926 1.383.48.934.727 2.413.74 4.438-.013 2.025-.26 3.504-.74 4.438-.481.934-1.123 1.395-1.926 1.383-.804.012-1.446-.45-1.927-1.383-.48-.934-.727-2.413-.74-4.438.013-2.025.26-3.504.74-4.438.481-.934 1.123-1.395 1.927-1.383zM42.604 405.149h2.46l.616-7.945 3.281 6.519 3.281-6.52.615 7.946h2.461l-1.025-11.408h-2.461l-2.871 5.704-2.871-5.704h-2.461zM83.562 393.896v-6.209L99.812 397l-16.25 9.313v-6.209h-12.5v-6.208z"/></g><g transform="translate(7 462)"><rect stroke="#000" stroke-width="2" fill="#FFF" x="1" y="1" width="98" height="48" rx="6"/><g fill="#000" fill-rule="nonzero"><path d="M52.129 19.092l1.64 1.834a15.93 15.93 0 0 1 1.564-1.445c.534-.428 1.107-.655 1.718-.68.727.025 1.302.252 1.725.68.423.429.639.91.648 1.445-.01.79-.174 1.45-.49 1.979-.318.528-.73 1.072-1.239 1.63a62.998 62.998 0 0 1-2.834 3.139 64.112 64.112 0 0 1-3.142 3.03v2.445h9.844c.205-.518.358-1.01.46-1.477.103-.467.155-.857.155-1.172H55.41a260.64 260.64 0 0 1 2.974-3.026 33.59 33.59 0 0 0 2.358-2.59c.521-.598.893-1.163 1.113-1.696.221-.532.329-1.286.323-2.262-.056-1.248-.56-2.267-1.513-3.056-.952-.79-2.02-1.197-3.204-1.223-1.222.015-2.264.248-3.128.699a7.301 7.301 0 0 0-2.204 1.746zM74.185 19.5l.82-2.649h-9.433v7.945l1.845 1.019c.205-.14.513-.37.923-.688.41-.318.923-.496 1.538-.534.927.038 1.636.369 2.128.993.491.624.739 1.311.743 2.062-.051 1.019-.461 1.783-1.23 2.292-.77.51-1.59.764-2.461.764-.69.008-1.383-.044-2.08-.156-.697-.112-1.303-.332-1.817-.659l.41 2.649c.047.034.466.17 1.257.407.79.238 1.67.374 2.64.408 1.97-.043 3.516-.62 4.64-1.732 1.124-1.112 1.696-2.504 1.717-4.176-.064-1.639-.602-2.895-1.615-3.77-1.012-.873-2.114-1.315-3.306-1.323a4.792 4.792 0 0 0-1.454.203c-.487.145-.89.416-1.212.815V19.5h5.947zM79.71 33.148h2.46l.617-7.945 3.28 6.52 3.282-6.52.615 7.945h2.46L91.4 21.74h-2.461l-2.871 5.704-2.871-5.704h-2.461zM23.75 21.896v-6.209L7.5 25l16.25 9.313v-6.209h12.5v-6.208z"/></g></g></g></svg>