<svg width="170" height="201" xmlns="http://www.w3.org/2000/svg"><g fill="none" fill-rule="evenodd"><path fill="#FFF" fill-rule="nonzero" d="M0 .758h50v178.03H0z"/><path fill="red" fill-rule="nonzero" d="M2.904 176h44.192L2.904 137.291zM2.904 118.132l44.192 38.317v-38.317L2.904 79.815zM2.904 60.656l44.192 38.317V60.656L2.904 22.339zM47.096 3.18H2.904l44.192 38.317z"/><path d="M49.5 178.5V.5H.5v178h49z" stroke="#000"/><g><path fill="#FFF" fill-rule="nonzero" d="M60.758 1.515H110V179H60.758z"/><path fill="red" fill-rule="nonzero" d="M107.096 176H62.904l44.192-37.952zM107.096 118.889l-44.192 38.318v-38.318l44.192-38.317zM107.096 61.414L62.904 99.731V61.414l44.192-38.318zM63.03 3h44.066L63.03 42.105z"/><path d="M109.5 178.5V.5h-49v178h49z" stroke="#000"/></g><g><path fill="#FFF" fill-rule="nonzero" d="M120.758.758H170v178.03h-49.242z"/><path fill="red" fill-rule="nonzero" d="M122.904 176h44.192v-19.355L145 137.29l-22.096 19.355z"/><path fill="red" fill-rule="nonzero" d="M122.904 137.29L145 118.132l22.096 19.158V98.973L145 79.815l-22.096 19.158zM122.904 79.815L145 60.656l22.096 19.159V41.497L145 22.339l-22.096 19.158zM122.904 22.339L145 3l22.096 19.339V3h-44.192z"/><path d="M120.5.5v178h49V.5h-49z" stroke="#000"/></g><path d="M11.914 193.568c0 .754-.294 1.381-.882 1.881-.588.5-1.327.75-2.218.75-.945 0-1.698-.244-2.258-.732s-.841-1.113-.841-1.875c0-.485.14-.923.422-1.316.281-.392.677-.704 1.19-.934v-.035c-.47-.25-.816-.524-1.04-.82-.225-.298-.338-.669-.338-1.114 0-.656.27-1.203.809-1.64.539-.438 1.224-.657 2.056-.657.872 0 1.567.21 2.086.627.52.418.78.95.78 1.594 0 .394-.123.782-.37 1.163-.246.38-.607.679-1.083.894v.035c.546.234.964.523 1.253.867.29.344.434.781.434 1.312zm-1.389-4.26c0-.417-.16-.75-.483-.998-.322-.248-.733-.373-1.233-.373-.493 0-.896.118-1.21.352-.315.234-.472.55-.472.95 0 .28.08.524.237.729.158.205.398.387.718.548.145.07.353.162.624.275.272.113.536.207.794.281.387-.258.654-.525.803-.802.148-.278.222-.598.222-.961zm.182 4.372c0-.36-.08-.648-.237-.865-.158-.216-.468-.434-.929-.653a5.885 5.885 0 0 0-.604-.24 41.62 41.62 0 0 1-.873-.31 2.306 2.306 0 0 0-.846.779 2 2 0 0 0-.32 1.113c0 .527.182.963.545 1.307.364.343.825.515 1.383.515.57 0 1.027-.146 1.368-.44.342-.292.513-.695.513-1.206zm4.805 2.32h-1.4v-1.67h1.4V196zm8.332 0h-5.907v-1.225l1.234-1.054a22.93 22.93 0 0 0 1.151-1.05c.75-.726 1.264-1.303 1.541-1.73a2.5 2.5 0 0 0 .416-1.386c0-.453-.15-.808-.448-1.064-.299-.256-.716-.384-1.25-.384-.356 0-.741.063-1.155.188a4.697 4.697 0 0 0-1.213.574h-.059v-1.23c.278-.137.648-.262 1.11-.375a5.65 5.65 0 0 1 1.345-.17c.895 0 1.596.216 2.104.647.508.432.762 1.017.762 1.755 0 .332-.042.642-.126.929-.084.287-.208.56-.372.817-.153.242-.331.48-.537.715-.205.234-.454.494-.747.78-.418.41-.85.807-1.295 1.192-.445.384-.86.74-1.248 1.069h4.694V196zm7.629 0h-5.907v-1.225l1.234-1.054a22.93 22.93 0 0 0 1.151-1.05c.75-.726 1.264-1.303 1.541-1.73a2.5 2.5 0 0 0 .416-1.386c0-.453-.15-.808-.448-1.064-.299-.256-.716-.384-1.251-.384-.355 0-.74.063-1.154.188a4.697 4.697 0 0 0-1.213.574h-.059v-1.23c.278-.137.648-.262 1.11-.375a5.65 5.65 0 0 1 1.345-.17c.895 0 1.596.216 2.104.647.508.432.762 1.017.762 1.755 0 .332-.042.642-.126.929-.084.287-.208.56-.373.817-.152.242-.33.48-.536.715-.205.234-.454.494-.747.78-.418.41-.85.807-1.295 1.192-.445.384-.861.74-1.248 1.069h4.694V196zm3.662 0h-1.4v-1.67h1.4V196zm7.834 0h-4.723v-.89h1.816v-5.848h-1.816v-.797c.246 0 .51-.02.791-.062.281-.04.494-.1.639-.178.18-.098.321-.222.425-.372.103-.15.163-.353.178-.607h.908v7.863h1.782V196zM71.914 193.568c0 .754-.294 1.381-.882 1.881-.588.5-1.327.75-2.218.75-.945 0-1.698-.244-2.258-.732s-.841-1.113-.841-1.875c0-.485.14-.923.422-1.316.281-.392.677-.704 1.19-.934v-.035c-.47-.25-.816-.524-1.04-.82-.225-.298-.338-.669-.338-1.114 0-.656.27-1.203.809-1.64.539-.438 1.224-.657 2.056-.657.872 0 1.567.21 2.086.627.52.418.78.95.78 1.594 0 .394-.123.782-.37 1.163-.246.38-.607.679-1.083.894v.035c.546.234.964.523 1.253.867.29.344.434.781.434 1.312zm-1.389-4.26c0-.417-.16-.75-.483-.998-.322-.248-.733-.373-1.233-.373-.493 0-.896.118-1.21.352-.315.234-.472.55-.472.95 0 .28.08.524.237.729.158.205.398.387.718.548.145.07.353.162.624.275.272.113.536.207.794.281.387-.258.654-.525.803-.802.148-.278.222-.598.222-.961zm.182 4.372c0-.36-.08-.648-.237-.865-.158-.216-.468-.434-.929-.653a5.885 5.885 0 0 0-.603-.24 41.62 41.62 0 0 1-.874-.31 2.306 2.306 0 0 0-.846.779 2 2 0 0 0-.32 1.113c0 .527.182.963.545 1.307.364.343.825.515 1.383.515.57 0 1.027-.146 1.368-.44.342-.292.513-.695.513-1.206zm4.805 2.32h-1.4v-1.67h1.4V196zm8.332 0h-5.906v-1.225c.41-.351.82-.703 1.233-1.054a22.93 22.93 0 0 0 1.151-1.05c.75-.726 1.264-1.303 1.541-1.73a2.5 2.5 0 0 0 .416-1.386c0-.453-.15-.808-.448-1.064-.299-.256-.716-.384-1.25-.384-.356 0-.741.063-1.155.188a4.697 4.697 0 0 0-1.213.574h-.059v-1.23c.278-.137.648-.262 1.11-.375a5.65 5.65 0 0 1 1.345-.17c.895 0 1.596.216 2.104.647.508.432.762 1.017.762 1.755 0 .332-.042.642-.126.929-.084.287-.208.56-.372.817-.153.242-.331.48-.537.715-.205.234-.454.494-.747.78-.418.41-.85.807-1.295 1.192-.445.384-.86.74-1.248 1.069h4.694V196zm7.629 0h-5.907v-1.225l1.234-1.054a22.93 22.93 0 0 0 1.151-1.05c.75-.726 1.264-1.303 1.541-1.73a2.5 2.5 0 0 0 .416-1.386c0-.453-.15-.808-.448-1.064-.299-.256-.716-.384-1.251-.384-.355 0-.74.063-1.154.188a4.697 4.697 0 0 0-1.213.574h-.059v-1.23c.278-.137.648-.262 1.11-.375a5.65 5.65 0 0 1 1.345-.17c.895 0 1.596.216 2.104.647.508.432.762 1.017.762 1.755 0 .332-.042.642-.126.929-.084.287-.208.56-.373.817-.152.242-.33.48-.536.715-.205.234-.454.494-.747.78-.418.41-.85.807-1.295 1.192-.445.384-.861.74-1.248 1.069h4.694V196zm3.662 0h-1.4v-1.67h1.4V196zm8.332 0H97.56v-1.225c.41-.351.82-.703 1.233-1.054a22.93 22.93 0 0 0 1.151-1.05c.75-.726 1.264-1.303 1.541-1.73a2.5 2.5 0 0 0 .416-1.386c0-.453-.15-.808-.448-1.064-.299-.256-.716-.384-1.25-.384-.356 0-.741.063-1.155.188a4.697 4.697 0 0 0-1.213.574h-.059v-1.23c.278-.137.648-.262 1.11-.375a5.65 5.65 0 0 1 1.345-.17c.895 0 1.596.216 2.104.647.508.432.762 1.017.762 1.755 0 .332-.042.642-.126.929-.084.287-.208.56-.372.817-.153.242-.331.48-.537.715-.205.234-.454.494-.747.78-.418.41-.85.807-1.295 1.192-.445.384-.86.74-1.248 1.069h4.694V196zM131.914 193.568c0 .754-.294 1.381-.882 1.881-.588.5-1.327.75-2.218.75-.945 0-1.698-.244-2.258-.732s-.841-1.113-.841-1.875c0-.485.14-.923.422-1.316.281-.392.677-.704 1.19-.934v-.035c-.47-.25-.816-.524-1.04-.82-.225-.298-.338-.669-.338-1.114 0-.656.27-1.203.809-1.64.539-.438 1.224-.657 2.056-.657.872 0 1.567.21 2.086.627.52.418.78.95.78 1.594 0 .394-.123.782-.37 1.163-.246.38-.607.679-1.083.894v.035c.546.234.964.523 1.253.867.29.344.434.781.434 1.312zm-1.389-4.26c0-.417-.16-.75-.483-.998-.322-.248-.733-.373-1.233-.373-.493 0-.896.118-1.21.352-.315.234-.472.55-.472.95 0 .28.08.524.237.729.158.205.398.387.718.548.145.07.353.162.624.275.272.113.536.207.794.281.387-.258.654-.525.803-.802.148-.278.222-.598.222-.961zm.182 4.372c0-.36-.08-.648-.237-.865-.158-.216-.468-.434-.929-.653a5.886 5.886 0 0 0-.603-.24 41.62 41.62 0 0 1-.874-.31 2.306 2.306 0 0 0-.846.779 2 2 0 0 0-.32 1.113c0 .527.182.963.545 1.307.364.343.825.515 1.383.515.57 0 1.027-.146 1.368-.44.342-.292.513-.695.513-1.206zm4.805 2.32h-1.4v-1.67h1.4V196zm8.332 0h-5.906v-1.225c.41-.351.82-.703 1.233-1.054a22.93 22.93 0 0 0 1.151-1.05c.75-.726 1.264-1.303 1.541-1.73a2.5 2.5 0 0 0 .416-1.386c0-.453-.15-.808-.448-1.064-.299-.256-.716-.384-1.25-.384-.356 0-.741.063-1.155.188a4.697 4.697 0 0 0-1.213.574h-.059v-1.23c.278-.137.648-.262 1.11-.375a5.65 5.65 0 0 1 1.345-.17c.895 0 1.596.216 2.104.647.508.432.762 1.017.762 1.755 0 .332-.042.642-.126.929-.084.287-.208.56-.372.817-.153.242-.331.48-.537.715-.205.234-.454.494-.747.78-.418.41-.85.807-1.295 1.192-.445.384-.86.74-1.248 1.069h4.694V196zm7.629 0h-5.907v-1.225l1.234-1.054a22.93 22.93 0 0 0 1.151-1.05c.75-.726 1.264-1.303 1.541-1.73a2.5 2.5 0 0 0 .416-1.386c0-.453-.15-.808-.448-1.064-.299-.256-.716-.384-1.251-.384-.355 0-.74.063-1.154.188a4.697 4.697 0 0 0-1.213.574h-.059v-1.23c.278-.137.648-.262 1.11-.375a5.65 5.65 0 0 1 1.345-.17c.895 0 1.596.216 2.104.647.508.432.762 1.017.762 1.755 0 .332-.042.642-.126.929-.084.287-.208.56-.373.817-.152.242-.33.48-.536.715-.205.234-.454.494-.747.78-.418.41-.85.807-1.295 1.192-.445.384-.861.74-1.248 1.069h4.694V196zm3.662 0h-1.4v-1.67h1.4V196zm7.564-4.201c.188.168.342.379.463.633s.182.582.182.984c0 .398-.073.764-.217 1.096a2.604 2.604 0 0 1-.61.867 2.765 2.765 0 0 1-1.034.606c-.396.131-.83.197-1.303.197-.485 0-.961-.058-1.43-.173a6.72 6.72 0 0 1-1.154-.378v-1.225h.088c.332.219.722.4 1.171.545.45.145.883.217 1.301.217.246 0 .508-.041.785-.123.278-.082.502-.203.674-.363a1.71 1.71 0 0 0 .402-.569c.087-.207.131-.468.131-.785 0-.312-.05-.571-.149-.776a1.193 1.193 0 0 0-.413-.484 1.615 1.615 0 0 0-.639-.249 4.575 4.575 0 0 0-.808-.067h-.528v-.973h.41c.594 0 1.068-.124 1.421-.372.354-.248.53-.61.53-1.087 0-.21-.044-.395-.134-.553a1.1 1.1 0 0 0-.375-.39 1.686 1.686 0 0 0-.54-.211 3.27 3.27 0 0 0-.65-.059c-.37 0-.765.067-1.183.2-.418.132-.813.32-1.184.562h-.058v-1.224c.277-.137.647-.263 1.11-.378a5.56 5.56 0 0 1 1.345-.173c.426 0 .8.039 1.125.117.324.078.617.203.879.375.28.187.494.414.638.68.145.265.217.576.217.931 0 .485-.17.907-.513 1.269a2.247 2.247 0 0 1-1.21.682v.082c.188.032.403.097.645.197s.447.223.615.372z" fill="#0E0E0E"/></g></svg>